<svg width="385" height="12" viewBox="0 0 385 12" fill="none" xmlns="http://www.w3.org/2000/svg">
<mask id="mask0_1722_1062" style="mask-type:alpha" maskUnits="userSpaceOnUse" x="0" y="0" width="385" height="12">
<rect width="385" height="12" fill="#C4C4C4"/>
</mask>
<g mask="url(#mask0_1722_1062)">
<path d="M57.8286 -2.53796L58.7696 -2.69614L56.9385 -2.92292L57.8163 -3.08892C58.6964 -3.0874 59.8368 -2.83866 60.4573 -2.97083C60.5332 -3.09879 59.5748 -3.13986 59.3302 -3.24181C59.1138 -3.34631 58.9372 -3.45013 58.8024 -3.55202C59.2818 -3.55092 59.8087 -3.52628 60.3521 -3.47953C61.0829 -3.40319 61.7997 -3.36607 62.4234 -3.37229C63.6989 -3.35167 64.9312 -3.37224 66.3179 -3.36771L65.8565 -3.67567L67.6437 -3.60362C67.8331 -3.58016 68.0588 -3.61789 68.245 -3.58887C69.7938 -3.34329 70.4492 -3.47711 71.1927 -3.58807C71.3452 -3.61678 71.5288 -3.63822 71.7388 -3.65182C73.8049 -3.59299 75.668 -3.24878 77.5288 -3.07207C77.879 -3.02695 78.2149 -2.96904 78.5127 -2.90243C79.1599 -2.77295 79.8798 -2.66724 80.6065 -2.59497C81.3333 -2.52269 82.0437 -2.48616 82.6728 -2.48871C84.064 -2.49157 85.6357 -2.40593 87.2359 -2.24008C87.7117 -2.18545 88.1879 -2.14941 88.634 -2.13426C89.0801 -2.11911 89.4865 -2.12517 89.8269 -2.15207L90.9088 -1.97627C91.3778 -2.04761 91.9724 -2.08675 92.6567 -2.09131C93.3409 -2.09587 94.1005 -2.06577 94.8893 -2.00283C95.7299 -1.93455 96.5838 -1.88852 97.4559 -1.81634C99.2575 -1.67832 101.011 -1.59392 102.662 -1.56575C105.12 -1.48225 107.521 -1.4177 110.001 -1.31361C111.553 -1.26336 113.064 -1.23573 114.527 -1.23085C116.279 -1.21119 118.175 -1.11605 120.122 -0.950018C120.029 -0.794239 119.175 -0.840261 118.602 -0.845533C116.754 -0.871425 114.862 -0.938519 112.96 -0.988921C112.104 -1.0086 111.271 -1.01605 110.466 -1.01122C109.121 -1.01768 107.702 -1.05919 106.236 -1.13504C103.919 -1.2185 101.675 -1.25861 99.5292 -1.25498C99.361 -1.24881 99.2068 -1.23788 99.0693 -1.22236C99.0406 -1.20893 99.035 -1.19198 99.0529 -1.17315C99.0708 -1.15433 99.1117 -1.13424 99.1716 -1.11484C99.2315 -1.09543 99.3084 -1.07735 99.3951 -1.06231C99.4817 -1.04728 99.5752 -1.0358 99.6664 -1.02897C100.519 -0.9234 101.434 -0.810013 102.238 -0.794063C102.269 -0.792869 102.302 -0.790148 102.335 -0.78609C102.368 -0.782033 102.399 -0.776742 102.428 -0.770603C104.227 -0.54773 105.707 -0.585445 107.108 -0.549184C109.436 -0.451184 111.679 -0.405408 113.805 -0.412547C114.126 -0.412062 114.473 -0.399322 114.833 -0.374789C117.059 -0.275339 119.141 -0.264217 120.981 -0.341923C121.738 -0.361611 122.442 -0.405805 123.256 -0.406544C123.757 -0.409586 124.193 -0.437788 124.538 -0.489463C124.884 -0.541139 125.13 -0.615218 125.264 -0.707246C125.607 -0.658794 125.956 -0.615613 126.306 -0.57822C126.515 -0.556839 126.715 -0.551159 126.866 -0.562348C127.018 -0.573536 127.109 -0.600756 127.121 -0.638501C127.184 -0.744209 126.707 -0.797294 126.293 -0.842561C126.543 -0.865231 126.824 -0.878568 127.13 -0.88225C128.854 -0.906404 130.703 -0.877896 132.637 -0.797352C134.139 -0.700943 135.338 -0.779413 136.917 -0.643457C137.107 -0.619996 137.263 -0.65443 137.437 -0.662698C137.892 -0.706236 138.458 -0.716022 139.087 -0.6912C139.716 -0.666377 140.389 -0.607695 141.046 -0.520245C141.866 -0.759166 143.636 -0.486219 144.943 -0.461688C145.345 -0.340185 144.883 -0.361545 144.864 -0.328164C144.844 -0.294782 144.864 -0.328171 144.706 -0.347722C143.401 -0.175652 141.613 -0.138132 139.593 -0.240435C139.219 -0.240009 138.863 -0.232171 138.528 -0.216993C138.021 -0.19551 137.449 -0.197655 136.838 -0.223334C136.17 -0.242193 135.556 -0.233236 135.026 -0.196896C134.721 -0.197488 134.464 -0.179283 134.277 -0.143957C134.09 -0.108631 133.98 -0.0573284 133.958 0.00518023C134.161 0.0533705 134.387 0.0974645 134.626 0.135713C135.874 0.28673 137.118 0.34924 138.114 0.310944C139.847 0.244959 141.91 0.309349 143.754 0.286823C145 0.277698 146.326 0.303691 147.706 0.36432C147.706 0.36432 147.67 0.425519 147.667 0.431082C147.83 0.45758 148.002 0.478839 148.172 0.493644C148.172 0.493644 148.172 0.493645 148.188 0.465827C148.113 0.439112 148.01 0.413982 147.892 0.393344L147.482 0.342512C147.761 0.329283 148.022 0.289898 148.312 0.313962C148.925 0.358668 149.51 0.377542 150.033 0.369462C150.556 0.361381 151.006 0.326508 151.356 0.266939C151.976 0.19059 152.747 0.155872 153.619 0.165022C154.288 0.156686 154.932 0.138772 155.549 0.111367C155.549 0.111367 155.588 0.0446111 155.88 0.00912881C155.604 -0.0346331 155.315 -0.0703692 155.028 -0.0964382C153.779 -0.161568 152.526 -0.221133 151.299 -0.26566C150.847 -0.270471 150.422 -0.26301 150.032 -0.243424C148.952 -0.220505 147.739 -0.253035 146.463 -0.339115C146.463 -0.339115 146.21 -0.370393 146.084 -0.386033C146.442 -0.532787 147.676 -0.385869 148.176 -0.485254C148.48 -0.483446 149.015 -0.470948 148.996 -0.497113C148.955 -0.532026 148.95 -0.564463 148.982 -0.592091C149.014 -0.61972 149.082 -0.641861 149.182 -0.656921C149.281 -0.671984 149.41 -0.679596 149.558 -0.67921C149.706 -0.678822 149.87 -0.670442 150.039 -0.654682C151.444 -0.569418 152.767 -0.545706 153.928 -0.585001C154.368 -0.584244 154.862 -0.558972 155.298 -0.55265C155.566 -0.545034 155.81 -0.549269 156.017 -0.565121C157.073 -0.681863 158.493 -0.690389 160.064 -0.589418C160.824 -0.553115 161.534 -0.548262 162.157 -0.575103C162.6 -0.579906 162.788 -0.496907 163.104 -0.457806L164.445 -0.375382L162.723 -0.272102C163.091 -0.0354174 163.384 0.0426247 163.985 0.0573704C164.862 0.0796373 165.716 0.0896969 166.542 0.087487C167.154 0.0855414 167.658 0.034571 168.486 0.125104C168.632 0.139871 168.772 0.144649 168.884 0.138642C169.853 0.0582657 171.02 0.0398196 172.305 0.0845627C172.97 -0.0659458 174.104 0.0803877 175.152 0.198292C175.49 0.0849194 174.877 0.0328776 174.512 -0.0362977C175.388 -0.0292163 176.272 -0.0332602 177.177 -0.0167062C177.449 -0.0227315 177.761 -0.0124229 178.086 0.0134106C178.412 0.0392431 178.743 0.0798925 179.054 0.132182C179.206 0.165969 179.389 0.191396 179.565 0.203188C179.741 0.214977 179.896 0.212227 179.999 0.195506C180.469 0.146192 181.222 0.191613 181.61 0.108313C181.748 0.0891562 181.945 0.0864818 182.167 0.100759C182.388 0.115034 182.619 0.145336 182.818 0.186233C182.6 0.198993 182.406 0.219086 182.24 0.24607C181.646 0.333725 181.864 0.480188 182.619 0.693119C183.778 0.681409 184.962 0.684733 186.036 0.644603C186.635 0.608579 187.369 0.61984 188.155 0.677125C188.941 0.734407 189.749 0.835442 190.487 0.968864C190.754 1.02017 191.058 1.0557 191.34 1.06841C191.621 1.08112 191.858 1.07007 192.005 1.03745C192.096 0.999727 192.124 0.951984 192.087 0.898361L191.33 0.804525C191.33 0.804525 191.359 0.754453 191.366 0.743326L192.455 0.734912C193.032 0.73462 193.633 0.74937 194.178 0.745168C194.978 0.717224 195.891 0.732799 196.861 0.790928C197.756 0.850535 198.636 0.895589 199.493 0.925695C200.321 0.956682 200.922 0.857894 201.711 0.842118C202.307 0.830226 202.963 0.842935 203.654 0.879746C204.847 0.945035 205.942 0.945157 206.839 0.880098C207.885 1.23062 208.394 1.28761 209.365 1.1929L209.821 1.16584L209.946 1.24102L210.295 1.22449C210.948 1.20976 211.6 1.19504 212.281 1.18979C213.228 1.22232 214.25 1.30984 215.248 1.4438C215.438 1.46726 215.695 1.54697 215.862 1.60937C216.028 1.67178 216.391 1.86004 216.657 1.98259C216.367 2.07206 216.045 2.15761 215.815 2.26046C215.792 2.27803 215.794 2.29898 215.821 2.32163C215.849 2.34428 215.901 2.36799 215.973 2.39087C216.045 2.41374 216.135 2.43513 216.237 2.45333C216.338 2.47153 216.447 2.48602 216.556 2.49565C216.768 2.51639 216.978 2.53021 217.176 2.53656C218.151 2.5475 219.086 2.53937 219.969 2.51224C220.292 2.47398 220.734 2.47034 221.224 2.50192C221.715 2.5335 222.227 2.59848 222.678 2.68655C223.835 2.63368 225.178 2.6493 226.616 2.73233C228.137 2.68183 229.974 2.78396 231.395 2.67331C231.362 2.72895 231.509 2.82473 231.714 2.87992C232.037 2.96375 232.403 3.04144 232.797 3.1097L235.802 3.24297C235.914 3.3115 236.055 3.38087 236.221 3.45018C236.336 3.50493 236.534 3.55851 236.776 3.59955C237.017 3.64059 237.282 3.66588 237.514 3.67005C238.112 3.69035 238.614 3.64495 239.327 3.75713C238.229 3.86318 236.748 3.84909 235.148 3.71738C233.645 3.6172 232.199 3.56714 230.865 3.56904C230.424 3.56828 229.845 3.57413 229.707 3.63473C229.402 3.80599 228.605 3.77892 227.675 3.74733C226.944 3.71275 226.277 3.71663 225.728 3.75865C225.179 3.80068 224.763 3.87965 224.516 3.98907C224.453 4.09477 224.603 4.185 225.244 4.24651L227.911 4.49316C228.304 4.46145 228.677 4.42391 229.028 4.3807C229.62 4.32331 230.35 4.30756 231.163 4.33467C231.976 4.36178 232.849 4.43102 233.714 4.53701C234.156 4.59175 234.597 4.64649 234.918 4.62048C235.199 4.5906 235.458 4.55483 235.693 4.51343C235.74 4.48568 235.759 4.45374 235.749 4.41885C235.919 4.43507 236.089 4.45617 236.254 4.48141C237.571 4.77585 238.59 4.77075 239.517 4.69438C239.767 4.67168 239.958 4.63559 240.212 4.60733C240.466 4.57906 240.556 4.54238 240.786 4.55305C242.627 4.64962 243.157 4.32709 244.708 4.34004C244.784 4.32744 244.831 4.30861 244.845 4.28527C244.858 4.26194 244.839 4.23486 244.787 4.20652C244.678 4.18093 244.551 4.15893 244.419 4.14253C244.286 4.12613 244.152 4.11587 244.03 4.11268C243.316 4.07129 242.685 4.08398 242.246 4.14858C241.935 4.17498 241.606 4.19602 241.26 4.21157L239.707 3.7445C241.212 3.78732 242.635 3.78704 243.943 3.74367C244.229 3.71931 244.712 3.76127 245.114 3.76925L248.07 3.8129C248.678 3.81652 249.196 3.7433 250.044 3.91398C250.044 3.91398 250.603 3.94151 250.753 3.9182C250.902 3.8949 251.564 3.74995 251.959 3.65553C252.418 3.68245 253.052 3.75509 253.338 3.73074C253.837 3.67092 254.268 3.59423 254.625 3.50205L256.411 3.63364C256.409 3.75054 256.344 3.86051 256.217 3.96189C256.077 4.05966 256.082 4.17702 256.231 4.30437C256.379 4.43173 256.667 4.56546 257.07 4.69465L258.834 5.37885C259.121 5.42467 259.428 5.45551 259.712 5.46719C259.996 5.47887 260.244 5.47082 260.421 5.44413C261.18 5.3649 262.03 5.30296 262.789 5.22373C263.767 5.34494 263.516 5.54072 264.227 5.71245L266.532 5.99788C266.883 6.26238 267.241 6.51575 266.172 6.6043C265.96 6.61979 266.103 6.72114 265.909 6.76279C266.74 6.96129 267.654 7.02071 268.496 7.14297C268.829 7.23089 269.106 7.32397 269.316 7.41769C269.547 7.55882 270.014 7.70297 270.618 7.81904C271.221 7.9351 271.912 8.01375 272.541 8.03801C273.596 8.11232 274.677 8.22392 275.734 8.36782C276.095 8.41785 276.466 8.45432 276.823 8.47473C277.179 8.49515 277.512 8.49906 277.799 8.48619C278.822 8.46353 279.688 8.38562 280.34 8.25752C280.985 8.14881 281.855 8.09641 282.871 8.10508C284.607 8.32013 284.957 8.64418 286.008 8.9296L284.193 8.9616C284.127 9.07287 284.247 9.21317 283.503 9.2106C282.759 9.20803 283.137 9.3145 283.378 9.42201C283.463 9.4761 283.629 9.53173 283.847 9.5795C284.066 9.62726 284.324 9.66422 284.578 9.68412L286.123 9.82173C286.671 9.87411 287.201 9.89647 287.655 9.88637C288.11 9.87627 288.471 9.8341 288.698 9.76449C288.96 9.69838 289.321 9.65367 289.759 9.63308C290.318 9.57916 290.777 9.49896 291.12 9.39552L293.301 9.54623C293.394 9.44228 293.694 9.36939 294.149 9.3399C294.605 9.31039 295.189 9.32608 295.803 9.38432L297.273 9.47682C298.908 9.57774 299.266 9.54452 299.745 9.25145L297.785 8.72799C298.07 8.59011 298.345 8.46892 298.62 8.34772C298.132 8.17526 297.48 8.01215 296.731 7.87494C296.033 7.72751 295.314 7.58472 294.579 7.44712C293.781 7.30651 292.939 7.18425 291.948 7.02574C291.775 6.97447 291.524 6.88363 291.203 6.79612C290.882 6.71107 290.547 6.6277 290.199 6.54634C290.265 6.43507 290.324 6.33493 290.198 6.20576C290.808 6.24697 291.438 6.31906 292.031 6.41551C292.625 6.51197 293.163 6.62976 293.598 6.75827C293.671 6.78105 293.76 6.80246 293.86 6.82104C293.961 6.83961 294.069 6.85493 294.178 6.86594C295.249 6.9449 295.762 7.10985 296.286 7.3121C296.638 7.41549 297.093 7.50731 297.587 7.57481C298.534 7.69212 299.461 7.8428 300.367 7.97289C300.644 8.01623 300.932 8.05191 301.219 8.07845C302.166 8.16284 303.119 8.28084 304.029 8.42645C304.326 8.46346 304.611 8.51243 304.861 8.56928C305.11 8.62613 305.316 8.68919 305.462 8.75322C305.237 8.82336 305.115 8.9119 305.105 9.0135C305.065 9.08026 305.73 9.21636 306.044 9.31501C306.358 9.41365 305.742 9.36717 305.533 9.3771C304.674 9.39618 304.515 9.43617 305.029 9.65512C305.201 9.72396 305.315 9.79285 305.364 9.85749C305.413 9.92213 305.397 9.98116 305.315 10.0309C305.193 10.2367 304.822 10.4058 304.567 10.6071C304.963 10.7397 305.624 10.8814 305.696 11.0456C305.731 11.082 305.804 11.1206 305.911 11.1586C306.017 11.1965 306.154 11.2329 306.312 11.2651C306.727 11.3346 307.105 11.4177 307.416 11.508C307.727 11.5983 307.962 11.6933 308.104 11.7857C308.151 11.824 308.263 11.8645 308.418 11.8993C308.574 11.934 308.761 11.9604 308.942 11.9731C309.159 11.9887 309.353 11.9867 309.484 11.9674C309.615 11.948 309.674 11.913 309.647 11.8694C309.653 11.7874 309.624 11.702 309.562 11.6139C309.598 11.5527 309.634 11.4915 309.491 11.3901C310.138 11.4271 310.817 11.5012 311.455 11.6045C312.093 11.7077 312.665 11.836 313.109 11.9756C313.599 12.1199 314.052 12.2715 314.595 12.4404C314.483 12.6295 314.483 12.6295 315.641 12.964L321.779 13.1271L323.037 13.3486C324.211 13.5417 324.49 13.5284 325.226 13.4286L325.722 13.3348C326.764 13.4638 327.964 13.6124 328.616 13.3706C328.827 13.5282 328.965 13.5811 328.917 13.6051C328.606 13.8376 328.066 14.0349 327.317 14.1892C327.126 14.2253 326.992 14.2803 326.77 14.3125C326.053 14.4941 325.886 14.7747 326.305 15.097C326.512 15.2396 326.814 15.3856 327.2 15.5303C326.635 15.7312 325.887 15.8976 324.975 16.0252C324.202 16.1238 323.564 16.2559 323.082 16.4177C322.649 16.5809 322.001 16.7035 321.174 16.7786C320.755 16.8105 320.448 16.8735 320.286 16.9613C320.238 17.1989 320.349 17.4533 320.617 17.7188C320.667 17.7996 320.81 17.8869 321.035 17.9738C321.26 18.0607 321.56 18.1449 321.912 18.2197C321.912 18.2197 322.082 18.2766 322.164 18.3106C322.232 18.5983 321.977 18.8519 321.418 19.0543C321.326 19.1117 321.139 19.1532 320.875 19.1742C320.612 19.1953 320.283 19.1951 319.924 19.1738C319.165 19.1395 318.456 19.1353 317.722 19.116C316.93 19.0888 316.234 19.1102 315.704 19.1782C315.175 19.2461 314.833 19.3579 314.714 19.502C314.706 19.5427 314.683 19.5818 314.645 19.6188C314.622 19.6379 314.61 19.6584 314.608 19.68L316.294 20.1516L314.387 20.3393C314.275 20.5285 315.191 20.6419 315.65 20.7823L315.366 20.8607C315.001 20.905 314.509 20.8202 314.063 20.771L313.621 20.7163L313.569 20.8053C313.294 20.9265 312.29 20.7903 311.898 20.8791C311.507 20.968 311.786 21.0683 312.373 21.1648C312.781 21.2366 313.219 21.2938 313.654 21.3322C314.089 21.3706 314.51 21.3891 314.885 21.3864C315.109 21.3769 315.295 21.3552 315.431 21.3226C316.223 21.184 317.097 21.0648 318.048 20.966C318.777 20.8772 319.69 20.8395 320.723 20.8554C321.026 20.8487 321.392 20.8697 321.756 20.9147C322.119 20.9598 322.458 21.026 322.712 21.1017L323.247 21.1142C323.247 21.1142 323.54 21.1922 323.498 21.205C323.295 21.4362 323.531 21.7189 324.173 22.0111L323.615 22.0376C322.817 22.0105 323.323 22.1866 323.204 22.2734C322.637 22.257 321.901 22.1837 321.633 22.2938L321.231 22.2858L321.389 22.3054L321.58 22.2693L322.329 22.4338C321.974 22.4615 321.717 22.4953 321.403 22.5102C321.23 22.5231 321.092 22.546 320.997 22.5774C320.903 22.6088 320.854 22.6481 320.854 22.693C320.855 22.762 320.762 22.8201 320.583 22.8617C320.404 22.9033 320.145 22.9271 319.832 22.9307C319.458 22.9322 319.245 23.0072 319.025 23.0339L319.977 23.4862C319.977 23.4862 319.504 23.4275 319.762 23.5072L319.795 23.4516L320.371 23.5648C320.787 23.6641 321.078 23.6881 321.323 23.617C321.569 23.5459 321.513 23.6405 321.63 23.6133C321.587 23.6856 321.32 23.7361 321.091 23.7794C320.827 23.8134 320.528 23.8385 320.2 23.8541C320.791 24.1722 320.819 24.1816 319.956 24.2658C319.093 24.35 319.39 24.4765 318.668 24.4945C317.946 24.5126 318.767 24.7278 319.251 24.7697C319.609 24.7973 319.974 24.8403 320.322 24.8957C320.669 24.9511 320.99 25.0176 321.263 25.0906L321.118 25.3354C320.905 25.3152 320.692 25.2888 320.487 25.2572C319.787 25.1228 319.15 24.9962 318.528 25.0743L318.824 25.2604L316.652 25.1525C316.708 25.2919 317.039 25.4507 317.575 25.5953C317.494 25.6748 317.445 25.7585 317.427 25.8457C317.391 25.9069 317.176 25.8684 317.037 25.875C316.539 25.8853 316.131 25.9267 315.848 25.9958C315.564 26.0648 315.415 26.1594 315.413 26.2711C315.356 26.3656 316.121 26.5619 316.6 26.5554C317.794 26.5743 319.085 26.6471 320.404 26.7698C321.207 26.7857 321.321 26.537 322.643 26.7068C322.67 26.8216 322.5 26.9146 322.161 26.9717C321.821 27.0288 321.33 27.0468 320.762 27.0231C321.085 27.2782 322.875 27.3447 322.955 27.6113C322.509 27.5924 322.032 27.5481 321.572 27.4827C321.111 27.4173 320.683 27.3331 320.329 27.2383C320.253 27.215 320.157 27.1934 320.05 27.1757C319.944 27.158 319.83 27.1447 319.72 27.137C319.61 27.1293 319.506 27.1274 319.419 27.1316C319.332 27.1358 319.265 27.1459 319.223 27.161C319.471 27.2574 319.743 27.3688 320.054 27.473C320.365 27.5772 320.44 27.6223 320.665 27.6442C322.338 27.8514 323.133 28.2246 324.581 28.4696C324.96 28.5165 325.007 28.6657 324.678 28.6488C324.365 28.632 324.082 28.6342 323.86 28.6552C323.638 28.6762 323.486 28.7152 323.421 28.7679C323.179 28.8293 322.876 28.8782 322.522 28.9133C324.006 29.2963 325.776 29.6347 327.666 29.8968C328.024 29.9486 328.397 29.9801 328.731 29.9869C329.786 29.9872 330.905 30.0176 332.066 30.0774C332.478 30.0937 332.858 30.0922 333.187 30.0729C334.264 30.0272 335.12 30.1273 335.902 30.4092L337.196 30.8561C337.153 30.9284 336.936 31.009 336.769 31.1197L337.779 31.3584L345.492 30.8087L347.041 31.3409L349.261 31.3113C349.431 31.3267 349.602 31.3479 349.766 31.3739C350.215 31.531 350.566 31.682 351.054 31.8319C351.541 31.9818 352.411 32 353.018 32.1767C353.625 32.3534 354.233 32.357 354.984 32.462C355.054 32.5988 354.982 32.7219 354.77 32.8236C354.7 32.9405 354.319 33.0127 354.253 33.1239C354.26 33.2364 354.118 33.3319 353.84 33.4017C353.562 33.4715 353.156 33.5135 352.66 33.5239C351.271 33.7633 349.595 33.9338 347.684 34.0302C347.516 34.0372 347.376 34.0534 347.275 34.0778C347.173 34.1022 347.11 34.1342 347.091 34.1719C347.094 34.281 346.967 34.3753 346.718 34.4479C346.47 34.5205 346.107 34.5695 345.657 34.5914C345.537 34.5958 345.446 34.6095 345.396 34.6308C345.225 34.6445 345.101 34.6708 345.035 34.7071C344.968 34.7435 344.963 34.7886 345.019 34.8381C345.075 34.8877 345.19 34.94 345.353 34.99C345.517 35.04 345.723 35.086 345.951 35.1235C346.283 35.1841 346.622 35.242 346.967 35.2971C346.947 35.3305 346.605 35.3359 346.655 35.3659C346.79 35.4619 346.821 35.5519 346.746 35.6286C346.671 35.7054 346.492 35.7668 346.223 35.8082L348.067 36.5859C349.186 36.6936 350.283 36.8763 351.151 37.0993C351.152 37.1358 351.102 37.1664 351.006 37.1881C350.91 37.2097 350.771 37.2216 350.604 37.2226C350.154 37.2385 349.729 37.2695 349.244 37.2871C348.947 37.3002 348.701 37.3291 348.518 37.3721C348.336 37.4151 348.221 37.4714 348.18 37.5376L349.263 37.8269C348.916 37.8974 348.659 37.9312 348.43 37.9745C348.559 38.0655 348.783 38.1595 349.082 38.2494C349.381 38.3393 349.749 38.4226 350.156 38.4929C350.265 38.5074 350.376 38.518 350.483 38.5241C350.59 38.5301 350.691 38.5315 350.779 38.5282C351.617 38.429 352.597 38.6042 353.55 38.7699C354.502 38.9356 355.019 39.0355 355.722 39.1644L357.067 39.1817C357.408 39.2427 357.712 39.3144 357.954 39.3912C358.197 39.4679 358.372 39.5475 358.466 39.6236C358.393 39.746 357.755 39.679 357.375 39.6916C356.473 39.7678 355.287 39.7515 354.014 39.6455C353.698 39.6064 353.374 39.638 353.067 39.6417C352.404 39.657 351.767 39.6818 351.159 39.716C350.759 39.7479 350.384 39.7873 350.039 39.834C349.946 39.9898 351.4 40.1101 350.575 40.1871C350.859 40.2223 350.966 40.2713 351.112 40.2536C352.048 40.3547 352.97 40.4047 353.771 40.3978C355.309 40.3763 357.055 40.4473 358.867 40.6049C360.823 40.7683 362.698 40.8368 364.34 40.805C364.965 40.8032 365.664 40.8366 366.383 40.9028C367.232 40.9945 368.075 41.0521 368.858 41.072C369.117 41.0727 369.406 41.0883 369.701 41.1175C369.995 41.1468 370.288 41.1888 370.554 41.2403C370.531 41.2792 370.277 41.3075 370.334 41.3264C371.144 41.6179 371.472 41.9213 372.719 42.2191C373.572 42.3246 374.55 42.4458 375.108 42.3059C375.665 42.1659 375.465 42.0456 374.356 41.6872C374.597 41.6821 374.887 41.6988 375.175 41.7345C375.464 41.7703 375.732 41.8227 375.935 41.8827L376.894 42.1509L377.759 42.4072C377.683 42.5352 377.623 42.6353 377.561 42.7411C377.462 42.8533 377.57 42.99 377.871 43.1319C378.053 43.2093 378.211 43.2868 378.344 43.3636C378.884 43.6707 379.041 43.961 378.796 44.2019C378.326 44.5483 377.673 44.867 376.842 45.1543C375.965 45.4338 375.485 45.7864 374.762 46.0911C374.393 46.2298 373.946 46.3541 373.423 46.4627C372.433 46.7044 371.348 46.9343 370.354 47.1815C369.361 47.4286 368.239 47.6062 367.135 47.8099C365.492 48.0517 363.716 48.2605 361.817 48.4352C360.642 48.5883 359.435 48.7374 358.348 48.9134C357.064 49.1117 355.556 49.2541 353.861 49.337C352.364 49.4363 351.027 49.5832 349.874 49.7748C349.753 49.7956 349.658 49.8219 349.591 49.8532C349.383 50.0486 348.802 50.1863 347.935 50.2453C347.988 50.3025 348.055 50.3607 348.137 50.4196C348.257 50.4898 348.282 50.5554 348.208 50.6081C348.135 50.6607 347.966 50.698 347.724 50.7149C347.031 50.7633 346.455 50.8455 346.022 50.9579C345.862 50.986 345.764 51.0271 345.734 51.0775C345.704 51.1279 345.744 51.1861 345.85 51.2472C345.944 51.31 345.951 51.3678 345.87 51.4131C345.789 51.4585 345.623 51.4892 345.395 51.5013C344.808 51.5608 344.179 51.6086 343.514 51.6446C342.097 51.7238 340.449 51.7228 338.669 51.6418C338.48 51.6183 338.289 51.6544 338.068 51.627C336.81 51.5362 335.641 51.5221 334.703 51.5865C333.604 51.6116 332.455 51.6066 331.296 51.6184C329.621 51.6105 328.076 51.6583 326.705 51.7604C325.136 51.6617 324.255 51.8333 322.932 51.8366C321.71 51.8542 320.552 51.8964 319.468 51.963C317.721 52.0512 315.981 52.1283 314.26 52.2316C312.644 52.2808 311.157 52.3749 309.823 52.5123C309.312 52.5743 308.387 52.4777 308.039 52.6077C307.691 52.7378 306.988 52.7224 306.42 52.7656L304.629 52.8722C304.321 52.8975 303.982 52.9136 303.618 52.9201C301.952 52.9288 300.799 53.1025 299.253 53.1379L299.095 53.1184C296.35 53.3765 293.209 53.5182 289.763 53.5393C287.751 53.6185 285.551 53.6147 283.415 53.6727C282.906 53.7888 281.703 53.6457 281.064 53.7517C280.425 53.8577 279.382 53.7883 278.558 53.8057C277.735 53.8231 276.929 53.8667 276.049 53.8652C275.285 53.8657 274.639 53.913 274.172 54.0029C273.104 54.1515 271.802 54.2388 270.325 54.261C268.37 54.2996 266.522 54.3873 264.535 54.368C264.563 54.4763 264.441 54.5684 264.181 54.6349C263.921 54.7014 263.533 54.7398 263.056 54.7463C260.931 54.7876 259.003 54.8952 256.85 54.9271L256.273 54.9274L249.832 54.9895C248.096 55.0015 246.424 55.0214 244.654 55.035C243.991 54.9529 243.975 55.0943 243.516 55.0673C243.388 54.9977 243.237 54.967 243.011 55.0048L242.962 55.0882L235.61 55.1989C232.732 55.2799 229.705 55.3042 226.553 55.2716C225.806 55.2798 225.108 55.3074 224.471 55.3541C223.881 55.3711 223.265 55.3787 222.628 55.3766C221.766 55.3556 220.924 55.345 220.105 55.3448C217.951 55.3767 215.691 55.3595 213.333 55.3362C210.975 55.3128 209.188 55.3543 207.089 55.3511C205.667 55.3482 204.252 55.3342 202.781 55.3013C202.078 55.2859 201.213 55.2026 200.485 55.1722C199.757 55.1418 199.52 55.1423 199.424 55.1901C199.107 55.3241 198.311 55.2374 197.675 55.2244C196.435 55.2021 196.258 55.1564 195.921 54.8101L197.444 54.7C197.817 54.6645 198.286 54.6583 198.806 54.6819C199.327 54.7055 199.88 54.7582 200.414 54.835C200.624 54.8678 200.843 54.8938 201.06 54.9114C201.276 54.929 201.485 54.9378 201.675 54.9374C203.211 54.9186 204.725 54.8792 206.201 54.8471L206.417 54.826L206.431 54.5172C206.235 54.4868 206.033 54.4618 205.831 54.4429L198.427 54.2425C196.728 54.1933 194.963 54.0823 193.296 54.037C191.628 53.9917 190.73 53.964 189.436 53.9172C188.89 53.8906 188.333 53.8556 187.77 53.8124C187.802 53.7827 187.821 53.751 187.826 53.7178C187.856 53.6678 187.895 53.601 187.656 53.5474C187.395 53.4719 187.046 53.4073 186.678 53.3667C186.334 53.3399 185.999 53.3247 185.688 53.3217C184.187 53.2958 182.472 53.1327 180.909 52.8671L180.363 53.0444C178.016 52.9448 175.634 52.8468 173.183 52.7522C172.692 52.7264 172.177 52.6769 171.676 52.6074C171.139 52.5409 170.645 52.4021 170.08 52.3262C169.522 52.2715 168.968 52.2289 168.427 52.1991C168.574 52.1535 168.767 52.117 169 52.0909C169.23 52.0817 169.397 52.0532 169.477 52.0095C169.558 51.9658 169.548 51.9092 169.449 51.8479C169.274 51.7426 169.197 51.6435 169.577 51.6309C169.929 51.6069 170.18 51.5549 170.302 51.4811C170.424 51.4073 170.411 51.3148 170.265 51.2144C170.201 51.1557 170.156 51.0982 170.13 51.0424L169.972 51.0228C169.451 50.815 168.411 50.7399 167.665 50.5699C167.312 50.5205 166.948 50.4922 166.628 50.4892C165.803 50.4527 164.999 50.4367 164.145 50.3907C163.737 50.3695 163.311 50.3309 162.891 50.2772C162.291 50.2029 162.228 50.1951 161.879 49.925C162.42 49.9297 162.849 49.8894 163.093 49.8108C163.337 49.7322 163.382 49.6202 163.219 49.4938C162.773 49.2175 162.302 48.9263 160.283 48.73C160.941 48.7203 161.575 48.7011 162.181 48.6724C162.357 48.6663 162.49 48.646 162.56 48.6143C162.63 48.5826 162.634 48.541 162.573 48.4951C162.512 48.4492 162.388 48.4011 162.217 48.3574C162.046 48.3137 161.837 48.2763 161.618 48.2503C160.553 48.0941 159.441 47.9895 158.408 47.9484C157.538 47.9302 156.752 47.9404 155.736 47.9399L154.536 47.7913C154.556 47.7579 154.38 47.7122 154.425 47.6939C154.73 47.5226 155.066 47.3553 155.412 47.1712C154.859 47.0718 154.38 46.9519 154.03 46.825C153.679 46.6982 153.472 46.5696 153.431 46.4541C153.401 46.4192 153.409 46.3874 153.454 46.361C153.499 46.3346 153.58 46.3142 153.691 46.3012C154.007 46.2788 154.251 46.2361 154.404 46.1764C154.557 46.1166 154.615 46.0414 154.573 45.9565L153.64 45.6439C150.831 45.4208 148.073 45.2615 145.416 45.1688L143.018 45.0987C142.729 45.015 142.818 44.9784 143.09 44.9763C143.363 44.9741 144.128 44.9973 144.663 45.0098C145.125 45.0262 145.535 45.0154 145.854 44.9785C146.173 44.9416 146.389 44.8798 146.482 44.7992L145.677 44.4426C145.717 44.3759 145.773 44.2813 146.209 44.2876C146.508 44.2799 146.728 44.2463 146.834 44.1922C146.939 44.1382 146.925 44.0668 146.793 43.9896C146.773 43.9338 146.803 43.8829 146.882 43.8394C147.528 43.8358 148.17 43.8377 148.757 43.8208C149.03 43.8151 149.26 43.7945 149.433 43.7602C149.605 43.7259 149.715 43.6787 149.756 43.622C149.777 43.5666 149.725 43.5035 149.605 43.4378C149.485 43.3721 149.3 43.3057 149.065 43.2438C148.146 43.1673 147.306 43.1663 146.728 43.2411C146.522 43.2997 146.191 43.3317 145.779 43.3329C145.367 43.3341 144.893 43.3044 144.42 43.2478C143.878 43.1825 143.337 43.1538 142.894 43.1669C142.452 43.1799 142.136 43.2339 142.005 43.319C141.449 43.286 140.956 43.2607 140.469 43.2243C139.895 43.1784 139.352 43.1648 138.899 43.1852C138.175 43.1995 137.395 43.1911 136.576 43.1602C134.216 43.0828 131.852 43.0111 129.567 42.9789C128.962 42.9697 128.439 42.9945 127.841 42.9742C127.244 42.9539 126.771 43.0087 126.023 42.8982C125.88 42.881 125.737 42.87 125.604 42.866C125.471 42.862 125.352 42.8651 125.257 42.875C123.944 42.9624 122.404 42.9748 120.729 42.9114C118.433 42.8958 116.053 42.8519 113.755 42.8419C113.081 42.8505 112.444 42.8735 111.85 42.9106C111.399 42.9331 110.926 42.9483 110.434 42.9562C110.057 42.9632 109.697 42.9425 109.76 43.0638C109.824 43.1852 109.259 43.1092 108.933 43.0868C107.815 43.028 106.671 42.9483 105.516 42.8487C104.378 42.7405 103.263 42.6775 102.237 42.6636C101.497 42.6554 100.733 42.6863 99.7805 42.5205C99.8168 42.4593 99.853 42.3981 100.06 42.3342C99.2837 42.1584 98.3976 42.0071 97.4753 41.8929C96.553 41.7787 95.6211 41.7048 94.7565 41.6773L93.5644 41.3446C93.2708 41.3055 92.9712 41.277 92.6836 41.2609C92.396 41.2448 92.1266 41.2414 91.8916 41.2508C91.71 41.2557 91.4888 41.2433 91.2684 41.216C91.048 41.1887 90.8433 41.1483 90.6919 41.1023C90.4655 41.0437 90.1891 40.9931 89.897 40.957C89.605 40.9208 89.3105 40.9006 89.0503 40.8989C88.2312 40.8627 87.3568 40.7792 86.5167 40.6568C86.2987 40.5851 86.1621 40.5109 86.1237 40.4436C86.0853 40.3762 86.147 40.3186 86.3009 40.2777C86.5491 40.2056 86.6884 40.1137 86.7105 40.0077C86.7326 39.9016 86.6369 39.7835 86.4294 39.6606C86.3231 39.5852 86.2876 39.5137 86.325 39.4506C86.3624 39.3875 86.4719 39.334 86.647 39.2934C87.3005 39.1056 87.1257 39.0004 86.0565 38.6888C85.8828 38.6369 85.6734 38.5883 85.4417 38.5462C85.2099 38.5042 84.9609 38.4695 84.7103 38.4444C84.1223 38.3936 83.5423 38.3559 82.981 38.3318C82.6653 38.2927 82.3415 38.3242 81.9778 38.3091C80.159 38.2331 79.8928 38.1105 79.3037 37.8465L78.8744 37.656C78.0783 37.5016 77.2076 37.3735 76.325 37.2807C75.4424 37.1879 74.57 37.1328 73.7705 37.1194C73.4528 37.1184 73.0875 37.092 72.7306 37.0443C71.5692 36.8985 70.393 36.7976 69.28 36.7483C68.5864 36.7206 67.8388 36.6488 67.1269 36.5415C66.415 36.4343 65.7691 36.2962 65.2668 36.1438C64.8156 36.0065 64.2253 35.8833 63.578 35.7913C62.8203 35.6975 62.7502 35.5873 63.1733 35.5023C63.5964 35.4174 64.305 35.308 64.934 35.2187C65.1529 35.1884 65.2885 35.139 65.3258 35.0762C65.3631 35.0133 65.3005 34.9394 65.1451 34.8627C65.0453 34.7314 65.028 34.6068 65.0936 34.492C65.1287 34.4443 65.1045 34.3896 65.0226 34.3315C64.9408 34.2735 64.8032 34.2135 64.6191 34.1557C64.435 34.0978 64.2088 34.0433 63.9556 33.996C63.7024 33.9486 63.4281 33.9095 63.1513 33.8812C61.9832 33.7365 60.8466 33.5957 59.6555 33.49C59.1563 33.4402 58.6576 33.3784 58.1717 33.3062C57.177 33.1277 56.1128 32.9797 55.041 32.8707C54.5323 32.822 54.035 32.7368 53.6567 32.6336C52.4634 32.3555 51.3638 32.0631 50.378 31.7617C50.1403 31.6682 49.8294 31.577 49.4647 31.4938C49.1 31.4106 48.6893 31.3372 48.2585 31.2782C47.9112 31.2352 47.6285 31.1405 47.3609 31.0775C47.1664 30.9316 47.1456 30.7966 47.3005 30.6852C47.4554 30.5738 47.781 30.4897 48.2466 30.4407C48.6881 30.3819 49.1012 30.3136 49.4829 30.2415C49.943 30.1831 50.4899 30.1481 51.1033 30.1376C51.8299 30.1063 52.3671 30.0167 52.645 29.8806C50.6561 29.6343 48.7647 29.2806 47.0213 29.3633L45.6967 29.1395C45.7495 29.0505 45.7956 28.9726 45.8385 28.9003C46.1535 28.7686 46.2519 28.6026 46.1254 28.4162C46.021 28.3261 46.0304 28.2441 46.1526 28.1785C46.2748 28.1129 46.5055 28.066 46.8213 28.0426C48.6918 27.8025 50.855 27.6404 52.6092 27.368C53.1592 27.3169 53.803 27.2936 54.5137 27.2993C55.2011 27.2829 55.1724 27.1599 54.3812 27.0082C53.9372 26.9289 53.4846 26.8529 53.0251 26.7805C50.999 26.7684 50.1736 27.132 47.8615 27.0308L46.7898 26.5517C46.5001 26.5443 46.2188 26.5414 45.9478 26.543L42.071 26.7376C41.7481 26.7474 41.4967 26.7807 41.3455 26.8337C41.1942 26.8868 41.1491 26.9575 41.2154 27.0378C41.2416 27.136 41.1882 27.2261 41.0571 27.3048C40.9725 27.3599 41.0266 27.4332 41.2075 27.5086C41.6151 27.6785 41.0921 27.7033 40.7618 27.746C40.6774 27.7502 40.58 27.7497 40.4754 27.7447C40.3708 27.7396 40.2609 27.7301 40.1523 27.7167C40.0436 27.7032 39.9383 27.6861 39.8424 27.6663C39.7465 27.6465 39.662 27.6244 39.5937 27.6013C39.0118 27.4397 38.5028 27.2691 37.9308 27.0908C38.3369 26.9201 37.859 26.64 38.4928 26.4856C38.5636 26.4547 38.592 26.4171 38.5761 26.3751C38.5602 26.3331 38.5004 26.2875 38.4003 26.2412C38.1423 26.1217 38.0194 26.0051 38.044 25.9033C38.0687 25.8015 38.24 25.7181 38.5407 25.6614L38.5769 25.6002C37.7839 25.3945 37.994 25.2115 37.6825 24.9938L36.9196 24.8515C35.0216 24.5089 35.0183 24.5145 33.3843 24.5271C33.0549 24.3967 33.4734 24.3769 33.7872 24.362L36.4154 24.2157C38.1338 24.118 39.9022 24.0504 41.8218 24.0134C43.7414 23.9765 45.8814 23.8533 47.8656 23.7647C47.9659 23.7578 48.0426 23.7442 48.0894 23.7251C48.1361 23.7059 48.1514 23.6817 48.1341 23.6546C48.0553 23.6252 47.952 23.5969 47.832 23.5717C47.7121 23.5465 47.5784 23.5251 47.4409 23.509C46.8095 23.4308 46.1617 23.3804 45.4888 23.315L44.2345 23.2015L43.8486 23.0522C43.5974 22.9613 43.4258 22.8505 43.0918 22.7852C42.8164 22.7366 42.5176 22.6996 42.2263 22.6782C41.935 22.6569 41.6619 22.6518 41.4356 22.6637C40.808 22.6935 40.2402 22.7366 39.6408 22.7759C39.0415 22.8151 38.7112 22.8578 38.1915 22.877C37.1356 22.8858 36.1151 22.9089 35.1345 22.9463C34.3085 23.0348 33.5446 23.1397 32.8474 23.2602C32.4125 23.3079 32.0058 23.365 31.2632 23.3029C30.9109 23.2466 30.6071 23.1726 30.4055 23.0941C30.2039 23.0155 30.1176 22.9375 30.162 22.8739C30.2019 22.824 30.3147 22.7846 30.4898 22.7592C30.6649 22.7339 30.8965 22.7235 31.1628 22.7291C31.9082 22.7199 32.5975 22.6891 33.2167 22.6371C34.0787 22.543 35.128 22.5024 36.3034 22.5178C36.702 22.5313 36.9692 22.4808 37.3179 22.4643C37.6665 22.4477 37.9619 22.4067 38.3507 22.4369C39.5583 22.5148 40.1374 22.3954 40.8611 22.3179C41.1061 22.2835 41.2579 22.2279 41.2998 22.1572C41.3417 22.0865 41.272 22.0035 41.0985 21.9173C40.7645 21.7456 40.3559 21.5729 39.8791 21.402C39.6337 21.3179 39.3192 21.2381 38.9605 21.1689C38.6018 21.0996 38.2084 21.0426 37.8113 21.0025C37.5737 20.8974 37.4469 20.794 37.4425 20.7017C37.438 20.6093 37.5561 20.5311 37.7859 20.4739C38.3715 20.3433 38.8907 20.2106 40.203 20.2835C40.82 20.3114 41.4006 20.3167 41.9218 20.2993C43.078 20.2755 44.4115 20.3277 45.7969 20.4508C46.1554 20.4824 46.5077 20.5039 46.8435 20.5147C49.2385 20.5904 51.5204 20.6282 53.809 20.6548C55.0213 20.6676 56.2436 20.6638 57.5092 20.7011C60.4772 20.782 63.179 20.7404 66.0438 20.7668C67.5442 20.7803 68.8872 20.7258 70.0023 20.6061C70.2194 20.5659 70.4059 20.5191 70.5596 20.4661C69.8206 20.327 69.009 20.2169 68.2023 20.1462C67.3957 20.0756 66.6211 20.0469 65.9528 20.0627C65.5854 20.1017 65.1104 20.1088 64.5811 20.0833C64.0517 20.0578 63.4886 20.0007 62.9546 19.9183L64.5072 19.8717C65.5367 19.85 66.5912 19.8432 67.5924 19.8119C69.1832 19.7581 70.6574 19.672 72.3047 19.6371C73.6346 19.6051 74.8247 19.5231 75.8376 19.3939C76.5693 19.2996 77.4051 19.2328 78.3278 19.1947C78.9837 19.1744 78.9837 19.1744 79.403 18.9815C79.0703 18.8567 78.6402 18.8392 78.2349 18.8368C75.8055 18.7583 73.4936 18.7445 71.3462 18.7958C70.2627 18.8004 69.3015 18.8533 68.5087 18.952C68.3146 18.9937 67.8179 18.9739 67.4193 18.9604C66.1697 18.9398 64.9753 18.9458 63.8506 18.9783C62.2956 19.0324 60.5637 19.0195 58.7222 18.9403C58.373 18.8433 58.7749 18.8513 58.7947 18.8179C60.221 18.7556 61.619 18.6839 63.0735 18.6312C63.4711 18.6124 63.8962 18.6031 64.3438 18.6034C66.0151 18.6361 67.4077 18.5455 68.3267 18.3442C68.3729 18.2663 68.9774 18.2755 69.2446 18.225C69.376 18.1813 69.4635 18.1298 69.5046 18.0721C69.1154 17.9283 68.6753 17.9275 68.3365 17.9274C67.3534 17.9434 66.4077 17.9739 65.5038 18.0185C64.6636 18.061 63.7335 18.0723 62.7388 18.0523C62.0047 18.033 61.3771 18.0628 60.6364 18.0546C60.2346 18.0375 59.8187 18.0101 59.3972 17.9728C59.8666 17.8726 60.5046 17.811 61.2664 17.7923C61.8441 17.7324 62.5664 17.7144 62.6587 17.5586C62.3859 17.4472 62.0819 17.4454 61.8378 17.4569C61.3298 17.4565 60.8391 17.4635 60.3682 17.478C59.3699 17.5096 58.2889 17.5101 57.1481 17.4793C56.5474 17.4678 55.9774 17.4712 55.4476 17.4896C54.247 17.5141 53.0964 17.5687 51.9972 17.5938C49.7454 17.6195 47.6916 17.7115 45.5279 17.76C45.0463 17.772 44.6147 17.8141 43.98 17.7415C43.3453 17.6688 43.317 17.6594 43.2421 17.6142C43.0645 17.539 43.0107 17.466 43.0918 17.4105C43.2177 17.3586 43.4629 17.3297 43.7839 17.329C45.7181 17.2465 47.5526 17.1306 49.276 16.982C50.0345 16.9523 50.699 16.8916 51.2464 16.8021C51.6806 16.7404 52.1957 16.6996 52.7754 16.6809C53.6186 16.6363 54.4976 16.6037 55.4089 16.5831C55.8329 16.572 56.1934 16.539 56.4693 16.4859C56.7451 16.4329 56.9307 16.361 57.015 16.2744L55.8979 15.9867C55.7223 15.9733 55.5482 15.9617 55.3763 15.952L46.1038 16.1592L45.1855 16.1649C44.179 16.1477 43.9331 16.1053 42.9784 15.7721C45.1571 15.6937 46.8699 15.4652 47.946 15.1093C47.6874 15.0711 47.4222 15.0382 47.1567 15.0116C45.4155 14.9274 43.7696 14.9051 42.2823 14.9454C41.3988 14.9494 40.4904 14.9384 39.5787 14.933C39.8453 14.7689 40.8668 14.8178 41.5326 14.7808C43.1234 14.723 44.5301 14.6034 45.7077 14.426C46.1138 14.3569 46.6217 14.3126 47.2084 14.2954C47.7955 14.2894 48.2859 14.2476 48.637 14.1734C48.988 14.0993 49.1891 13.9951 49.2226 13.87C49.2779 13.7567 49.3971 13.6515 49.5783 13.5558C49.2577 13.42 48.7485 13.29 48.1463 13.1901C47.5441 13.0902 46.8904 13.0274 46.3077 13.0133C45.064 12.9574 43.7739 12.8659 42.4704 12.7411C41.8211 12.6782 41.1843 12.642 40.6016 12.6351C40.0877 12.6297 39.5036 12.5843 38.9384 12.5056C38.3731 12.427 37.8578 12.3195 37.471 12.1996C36.9489 12.0513 36.4616 11.9014 35.9744 11.7514C35.4871 11.6015 34.9217 11.4121 34.353 11.2281C33.8515 11.1994 33.3632 11.1809 32.8946 11.1729C32.5301 11.1797 32.1048 11.1596 31.6688 11.1152C31.2328 11.0707 30.8043 11.0036 30.434 10.9219C30.6512 10.8413 30.8967 10.7702 31.1554 10.6768C30.8003 10.5535 30.5429 10.4278 30.3988 10.3073C30.2547 10.1868 30.2268 10.074 30.317 9.97582C30.3698 9.8868 29.9838 9.73747 29.8505 9.61943C29.6788 9.51767 29.6465 9.42271 29.7579 9.34699C29.8693 9.27127 30.1192 9.21833 30.4748 9.19511C30.9158 9.15226 31.2747 9.08773 31.5368 9.00416C31.6235 8.98247 31.6676 8.95276 31.6651 8.91775C31.6627 8.88274 31.6137 8.84355 31.5226 8.80376C31.4316 8.76398 31.3014 8.72486 31.144 8.68999C30.9866 8.65512 30.8071 8.62561 30.6217 8.60417C30.0538 8.54337 29.4898 8.50396 28.9621 8.4882C28.053 8.45922 27.1827 8.44102 26.3513 8.43359C25.4317 8.4224 24.4086 8.35339 23.386 8.23355C22.4705 8.12016 21.6497 8.01849 21.202 7.8018C20.7543 7.58512 20.0386 7.59202 19.4882 7.43428C19.7974 7.29208 20.3469 7.19329 21.0813 7.14786C21.5618 7.13164 21.963 7.08908 22.259 7.02289C22.555 6.95671 22.7393 6.86837 22.8001 6.76354L21.1292 6.32369C19.7947 6.11661 19.0564 6.27599 17.6146 6.19297L19.1002 6.0306C19.1301 6.01455 19.1412 5.9957 19.1332 5.97496C18.9889 5.64655 18.7595 5.57633 17.2408 5.39421L16.3884 5.28864L15.0394 5.16336C14.8233 5.09605 14.6739 5.02587 14.606 4.95982C14.5381 4.89377 14.5541 4.83417 14.6525 4.78699C14.8501 4.70763 14.9102 4.60623 14.8272 4.49211C14.6964 4.41652 14.6856 4.34684 14.7967 4.29515C14.9078 4.24345 15.1338 4.21302 15.4355 4.20914C15.6763 4.20312 15.6941 4.11576 15.8251 4.06629C15.9553 3.99811 16.178 3.94579 16.4782 3.91289C16.7784 3.87999 17.1489 3.86728 17.5646 3.87564C18.7904 3.88247 19.9419 3.85688 20.9986 3.79931L20.8092 3.77585C21.9107 3.82639 22.9404 3.83251 23.8483 3.79394C24.7582 3.74539 25.9258 3.77653 26.8922 3.74692C27.679 3.75372 28.2779 3.68652 28.5621 3.55959C28.8372 3.4384 29.8371 3.46668 30.6027 3.48985C31.0563 3.50484 31.4947 3.51119 31.9132 3.50883C32.4749 3.4814 33.1772 3.50725 33.903 3.58209C34.1208 3.60509 34.3353 3.61726 34.5259 3.61743C36.3711 3.64889 38.2129 3.6859 40.0331 3.70232C40.4532 3.69287 40.9459 3.71452 41.4532 3.76474C41.6665 3.78654 41.874 3.79558 42.048 3.79062C44.9241 3.74074 48.1696 3.868 50.9891 3.79918C51.3309 3.78292 51.7092 3.77954 52.1134 3.78913C53.0217 3.82956 53.8105 3.80354 54.36 3.71503C54.6565 3.66795 55.0366 3.64201 55.476 3.63885C55.9155 3.6357 56.4047 3.65541 56.9124 3.69672C57.7573 3.75142 58.5382 3.75735 59.1726 3.71389C60.4097 3.67374 61.7106 3.65723 63.0651 3.66449C63.4802 3.67151 63.845 3.65591 64.1314 3.61888C64.4178 3.58186 64.618 3.52441 64.7165 3.45098C64.3839 3.32617 64.0201 3.31099 63.6748 3.32196C62.3361 3.29352 61.0008 3.25951 59.6871 3.24611C58.5113 3.20782 57.3831 3.19612 56.3191 3.21117C55.7907 3.22815 55.1315 3.18944 54.4852 3.10348C53.6931 2.99462 52.8773 2.94054 52.2027 2.95217C51.7026 2.95506 51.1746 2.94568 50.6266 2.92418C50.2758 2.89824 49.9162 2.85371 49.5848 2.79515C49.4533 2.76972 49.3101 2.74833 49.1645 2.73236C49.0189 2.71639 48.8741 2.7062 48.7392 2.70242C48.6043 2.69864 48.4823 2.70135 48.3811 2.71041C48.2799 2.71946 48.2018 2.73464 48.1515 2.75498C47.644 2.92504 46.5094 2.83826 45.5378 2.81945C44.0818 2.53162 42.9981 2.70198 41.6373 2.53941C41.5297 2.52863 41.4237 2.5221 41.3257 2.52024C41.2278 2.51838 41.14 2.52121 41.0676 2.52857C38.4342 2.62642 35.3649 2.54487 32.6 2.57866C32.2951 2.5836 31.9411 2.56667 31.5785 2.52978C29.2082 2.28564 26.9292 2.21632 25.1872 2.3354C24.9753 2.34612 24.7341 2.34658 24.4748 2.33675C23.2838 2.23972 22.1448 2.20103 21.1529 2.22392C19.5985 2.21653 18.1039 2.22252 16.5245 2.20009C15.4358 2.16818 14.4806 2.20227 13.7548 2.29898C13.7318 2.33793 13.2483 2.29596 12.8779 2.2919C12.6649 2.19385 12.4803 2.1053 12.2607 2.01838C12.0644 1.91085 11.7703 1.80203 11.3986 1.69932C11.0268 1.5966 10.586 1.50239 10.1059 1.42304C9.28505 1.32138 9.20297 1.17386 9.77733 1.11958C11.2578 0.940019 13.1193 0.866526 15.2252 0.904497C16.9855 0.907531 18.7775 0.914482 20.5628 0.932555C21.6041 0.948059 22.7019 0.982496 23.715 0.988526C24.0568 1.00178 24.4079 1.0213 24.7648 1.04689C25.2026 1.08399 25.6277 1.10421 26.0172 1.10646C27.2679 1.07521 28.6636 1.10243 30.1378 1.18682C30.6778 1.20522 31.1963 1.21142 31.6856 1.20533C32.8432 1.18243 34.0982 1.19928 35.4174 1.25546C36.2373 1.28714 37.0322 1.3037 37.7941 1.30498C38.0631 1.30844 38.2822 1.28183 38.5414 1.30198C40.8224 1.51283 42.4376 1.36053 44.4906 1.44161C45.4884 1.46422 46.4417 1.46428 47.337 1.44181C49.0844 1.44289 50.8804 1.46601 52.718 1.51106C55.1479 1.58508 57.3997 1.5594 59.7198 1.58996C60.1778 1.59638 60.6201 1.59529 61.0434 1.58668C63.1024 1.5298 65.3387 1.54186 67.6979 1.62257C68.2337 1.63423 68.7148 1.61997 69.1112 1.5807C69.5077 1.54143 69.8109 1.47798 70.002 1.39434C70.0828 1.33693 70.0304 1.26237 69.8549 1.18503C69.5637 1.08626 69.2349 0.989492 68.8739 0.896312L55.7414 0.583634C55.1898 0.567307 54.6519 0.558516 54.1304 0.557302C52.5967 0.554584 51.0157 0.530259 49.3955 0.48445C47.7944 0.44142 46.2649 0.449058 44.7137 0.436103C44.2568 0.431763 43.7878 0.421523 43.3087 0.405413C40.07 0.27791 36.9118 0.200034 33.8566 0.17234C32.5712 0.168411 31.1826 0.109895 29.8722 0.0909291C28.5619 0.0719612 26.7699 0.0650181 25.2155 0.0576252L20.4029 0.0587596C19.4563 0.0549871 18.5346 0.0662466 17.6163 0.0719466C16.5018 -0.334817 16.1178 -0.430158 14.6307 -0.608366C14.122 -0.674103 13.6045 -0.713332 13.1389 -0.721461C11.6627 -0.689306 9.81045 -0.82316 8.41057 -0.805439C7.56586 -0.81418 6.84908 -0.768993 6.33362 -0.674502C5.88616 -0.600345 5.37449 -0.541666 4.8065 -0.499352C3.25058 -0.847328 3.11346 -1.07333 4.28386 -1.16128C4.60097 -1.18172 5.03775 -1.1754 5.26674 -1.2187C5.39813 -1.24507 5.57762 -1.26015 5.79091 -1.26276C6.00419 -1.26537 6.24538 -1.25543 6.49554 -1.23372C7.28508 -1.17678 8.02511 -1.16338 8.64138 -1.19489C9.22135 -1.23659 9.93226 -1.23492 10.7056 -1.19005C11.2739 -1.11967 11.7733 -1.21905 12.2648 -1.24776C12.7562 -1.27648 13.1595 -1.32805 13.9271 -1.2509C14.0676 -1.23554 14.2072 -1.22632 14.335 -1.22394C14.4628 -1.22157 14.5755 -1.22611 14.6645 -1.23721C15.4889 -1.28689 16.4727 -1.28167 17.5359 -1.22197C19.1667 -1.16322 20.6967 -1.16102 22.073 -1.21544C22.8968 -1.26305 23.5992 -1.34749 24.1527 -1.46546C24.3036 -1.50492 24.5276 -1.52858 24.8034 -1.53417C26.1881 -1.50956 27.6917 -1.41692 29.2171 -1.26224C29.7917 -1.20026 30.3656 -1.15123 30.9266 -1.1162C32.0794 -1.03839 33.1944 -0.99479 34.2385 -0.986686C35.7558 -0.985402 37.3355 -0.955464 38.9636 -0.897142C39.9684 -0.864669 40.9366 -0.852684 41.8567 -0.861316C42.8024 -0.865385 43.8121 -0.840615 44.8629 -0.78758C45.9079 -0.744363 46.8289 -0.769263 47.5147 -0.85927C47.7405 -0.907771 47.9224 -0.965365 48.057 -1.03098C46.5269 -1.24448 44.9444 -1.35299 43.6282 -1.33464C43.1283 -1.34879 42.7132 -1.33451 42.1864 -1.41767L42.1699 -1.38985C42.0651 -1.3718 41.9069 -1.36755 41.7256 -1.37789C41.5442 -1.38824 41.3524 -1.41246 41.1866 -1.44595C41.2492 -1.55166 41.3086 -1.6518 41.3514 -1.72413C42.3543 -1.71137 43.328 -1.7124 44.2676 -1.72724C45.0597 -1.74858 46.1349 -1.56166 46.8205 -1.63202C48.1577 -1.54403 49.0092 -1.66552 50.2083 -1.63046C51.4075 -1.59541 52.7283 -1.4796 53.9274 -1.44455C54.9738 -1.42531 55.9899 -1.42113 56.9699 -1.43202C57.3081 -1.44731 57.6981 -1.44373 58.1158 -1.42148C58.703 -1.37963 59.2491 -1.37261 59.6916 -1.40125C60.1341 -1.42988 60.4551 -1.49301 60.6177 -1.58339C60.4646 -1.66805 60.2582 -1.77721 60.0203 -1.89029C60.458 -1.98321 61.1229 -2.02233 61.9162 -2.00184L63.0372 -2.00633C63.3343 -2.00388 63.5613 -2.029 63.6715 -2.07649C63.7816 -2.12399 63.7664 -2.19022 63.629 -2.2615C61.5034 -2.62031 61.4251 -2.65986 59.8651 -2.42907L57.7937 -2.53632L57.8286 -2.53796ZM85.8455 -1.55232L85.6877 -1.57187L85.8455 -1.55232ZM343.978 36.623L343.942 36.6842L343.982 36.6174L344.329 36.6604L344.352 36.6215L343.978 36.623ZM293.558 9.799C293.067 9.73223 292.571 9.67085 292.074 9.61522C291.944 9.6066 291.822 9.60465 291.719 9.60954C291.616 9.61444 291.534 9.62602 291.481 9.64333C291.442 9.71009 291.719 9.75641 291.972 9.78769C292.29 9.82979 292.616 9.85655 292.914 9.8652C293.213 9.87384 293.474 9.86408 293.671 9.83689L293.956 9.81253L293.558 9.799ZM40.7379 26.0709C41.061 26.0821 41.3675 26.084 41.6497 26.0763C42.9016 26.0224 44.1002 25.9439 45.3837 25.8938C47.0032 25.7668 48.8641 25.715 50.8966 25.7405C51.6906 25.753 52.3615 25.7118 52.8308 25.6218C53.1118 25.5735 53.4744 25.5452 53.8966 25.5388L59.27 25.3921C59.6021 25.3617 59.8893 25.319 60.1247 25.2651C59.6511 25.2064 59.3355 25.1673 59.146 25.1439C58.753 25.1373 58.4152 25.1551 58.1664 25.1957C57.8993 25.2645 57.4476 25.2917 56.9013 25.2719C56.3497 25.2556 55.8118 25.2468 55.2904 25.2456C54.3056 25.249 53.3141 25.2636 52.3261 25.2726C51.9416 25.4639 50.807 25.3771 49.8354 25.3583L49.0848 25.3668C46.6312 25.466 44.2876 25.6024 42.0651 25.7754C41.6356 25.8047 41.2655 25.8514 40.9664 25.9141C40.8537 25.9629 40.8176 26.0239 40.8609 26.0921L40.7031 26.0725L40.7379 26.0709ZM150.302 44.3585C150.897 44.3715 151.517 44.3983 152.152 44.4384C152.642 44.4793 153.119 44.5042 153.566 44.5119C156.068 44.5548 158.676 44.6538 161.354 44.8077C161.704 44.831 162.041 44.8424 162.351 44.8415L164.542 44.8025C165.233 44.7805 165.246 44.7583 164.744 44.4631C164.326 44.4058 163.904 44.3535 163.481 44.3067C163.228 44.2754 162.818 44.2246 162.722 44.2724C162.136 44.4029 161.068 44.3184 160.169 44.2907C157.568 44.2194 154.886 44.1141 152.26 44.0277C151.705 44.0066 151.167 43.9959 150.652 43.9958C150.333 43.9914 150.041 43.9997 149.79 44.0205C149.717 44.0226 149.656 44.0288 149.61 44.0386C149.565 44.0484 149.537 44.0617 149.527 44.0774C149.518 44.0932 149.528 44.1112 149.556 44.1302C149.584 44.1491 149.631 44.1686 149.692 44.1874C149.906 44.2531 150.155 44.316 150.428 44.3741L150.302 44.3585ZM169.355 1.51677L171.917 1.48178C172.225 1.47802 172.485 1.43863 172.814 1.45548C174.569 1.50887 176.193 1.494 177.618 1.4115C178.104 1.37783 178.671 1.3711 179.291 1.39167C181.186 1.45264 182.974 1.45515 184.606 1.39912C185.661 1.38788 186.649 1.35012 187.554 1.2864C187.623 1.2716 187.667 1.25152 187.681 1.22752C187.695 1.20352 187.68 1.17616 187.636 1.14731C187.625 1.12908 187.594 1.10947 187.545 1.08984C187.497 1.07021 187.432 1.051 187.355 1.03356C187.279 1.01613 187.192 1.00087 187.101 0.988832C187.011 0.976795 186.918 0.968264 186.83 0.963837C185.687 0.877584 184.601 0.847537 183.663 0.876132C182.792 0.910345 181.855 0.920357 180.866 0.90601C179.92 0.902236 179.277 1.0138 178.108 0.928673C177.613 0.900639 177.177 0.909869 176.872 0.954812C176.26 1.02931 175.405 1.03345 174.459 0.966505C173.894 0.932625 173.353 0.918096 172.858 0.923471C171.658 0.947963 170.51 0.996964 169.398 1.04431C169.047 1.05527 168.672 1.05678 168.277 1.04881L162.707 0.956099C161.368 0.927658 160.033 0.893654 158.719 0.88025C157.645 0.851148 156.645 0.860262 155.755 0.907274C154.806 0.956684 153.771 0.976743 152.669 0.967073C150.959 0.994114 149.258 1.00445 147.397 1.00082C146.209 1.00305 144.994 0.995824 143.753 0.973551C143.126 0.944883 142.593 0.968228 142.257 1.03909C142.053 1.09743 141.573 1.0499 141.174 1.03636C139.048 0.905868 137.054 0.874949 135.332 0.945755C135.112 0.957295 134.87 0.961471 134.613 0.958215C132.954 0.955785 131.235 0.939968 129.642 0.939793C129.223 0.945295 128.828 0.96039 128.463 0.984888C128.502 1.02486 128.614 1.06818 128.774 1.10586C128.935 1.14355 129.133 1.17271 129.326 1.1873C130.832 1.29896 132.287 1.35795 133.628 1.36179C135.861 1.34756 138.199 1.37954 140.62 1.45739C142.498 1.53586 144.211 1.51934 145.63 1.40905C146.74 1.32675 148.183 1.35771 149.712 1.49662C150.367 1.56296 151.002 1.58949 151.531 1.57258C152.04 1.5504 152.625 1.55578 153.25 1.5884C154.568 1.65044 155.836 1.67922 157.029 1.67417C158.194 1.65134 159.282 1.58895 160.479 1.57002C161.676 1.55109 163.5 1.56194 164.976 1.52978C166.452 1.49763 167.912 1.49329 169.355 1.51677ZM63.1829 -1.73747C63.3181 -1.56545 63.7969 -1.45838 64.3119 -1.41251C66.0875 -1.20883 67.8429 -1.12216 69.2834 -1.16704C70.0615 -1.22964 71.0988 -1.20554 72.1915 -1.09948C73.4639 -0.989229 74.6531 -0.970945 75.5497 -1.04785C75.7693 -1.06129 75.9375 -1.0897 76.0392 -1.13054C76.059 -1.16393 76.0953 -1.22512 76.1019 -1.23625C76.0077 -1.26447 75.8922 -1.29062 75.7642 -1.31267C75.6363 -1.33473 75.4994 -1.35211 75.364 -1.36347L69.4827 -1.56039L68.4578 -1.60372C66.5858 -1.71725 64.802 -1.76247 63.1829 -1.73747ZM74.7515 0.985269C75.6694 1.26617 75.6726 1.2606 76.1429 1.32481C78.4115 1.59153 80.6787 1.73552 82.6745 1.73963C83.1181 1.73881 83.4946 1.7117 83.772 1.66056C83.9147 1.65363 84.0056 1.63161 84.0247 1.5993C84.0439 1.56699 83.9898 1.52701 83.8742 1.48809L83.1443 1.29019C81.8187 1.20452 80.5121 1.13645 79.2325 1.08638C77.7426 1.02726 76.4222 1.02498 74.8777 1.0009L74.7515 0.985269ZM150.192 43.1147C151.047 43.5013 151.05 43.4957 152.482 43.5954C153.48 43.6661 154.448 43.7076 155.357 43.7186C156.468 43.7308 157.608 43.7525 158.716 43.7702C158.986 43.7826 159.215 43.7723 159.359 43.7416C159.502 43.7108 159.55 43.6616 159.492 43.6037C159.347 43.5407 159.119 43.4799 158.847 43.4309C158.574 43.382 158.273 43.3479 157.991 43.3342L157.387 43.325C156.653 43.3057 155.89 43.277 155.181 43.2728C154.721 43.2888 154.188 43.2764 153.624 43.2366C153.059 43.1967 152.479 43.1305 151.928 43.0431L150.192 43.1147ZM79.3187 -1.23198C79.5471 -1.16503 79.8054 -1.10091 80.0867 -1.04131C81.1761 -0.876142 82.329 -0.782331 83.3196 -0.778271C83.7879 -0.76804 84.2162 -0.804572 84.6931 -0.751484C85.5483 -0.680545 86.3772 -0.642757 87.1349 -0.640165C87.1349 -0.640165 87.3473 -0.655655 87.417 -0.658963L87.5621 -0.903759C87.2035 -0.960468 86.8294 -1.0068 86.4572 -1.04061C85.208 -1.10574 83.9806 -1.15027 82.7564 -1.20036C81.5323 -1.25045 81.1054 -1.27346 80.3049 -1.29497C79.9478 -1.28315 79.6175 -1.26205 79.3187 -1.23198ZM52.2684 29.201L53.9031 29.702C54.432 29.7456 54.9262 29.7534 55.3104 29.7245C55.6945 29.6955 55.9477 29.6313 56.0313 29.5416C56.1659 29.4996 56.1794 29.4374 56.0689 29.3681C55.9583 29.2987 55.7324 29.2276 55.4385 29.1696C55.1556 29.1008 54.8327 29.0392 54.4896 28.9885C54.1466 28.9378 53.7909 28.8991 53.4444 28.8748L52.2684 29.201ZM65.8785 26.7063C64.8094 26.6213 63.7868 26.5866 62.8889 26.6047C62.3232 26.6544 61.5566 26.6386 60.7464 26.5603C59.273 26.4045 57.8527 26.3613 56.7852 26.44C56.7852 26.44 56.7455 26.5067 56.5646 26.5261C56.3837 26.5455 57.1013 26.5926 57.2591 26.6122C58.4169 26.66 59.5812 26.6967 60.5876 26.7139C61.2125 26.7131 61.8734 26.7289 62.559 26.761C63.5024 26.8104 64.3971 26.8264 65.2081 26.8084C65.2081 26.8084 65.5219 26.7935 65.8752 26.7118L65.8785 26.7063ZM180.059 0.609016C179.549 0.514654 178.995 0.437962 178.44 0.384696C177.884 0.331432 177.342 0.302981 176.853 0.301465C176.478 0.296542 176.176 0.321456 175.992 0.37227C175.808 0.423082 175.755 0.496896 175.839 0.582037C176.218 0.628957 176.723 0.691517 177.008 0.726707C177.992 0.723263 178.832 0.678016 180.059 0.609016ZM275.654 8.56089C275.244 8.48493 274.792 8.42685 274.351 8.39329C273.909 8.35973 273.496 8.35204 273.157 8.37109C272.982 8.37936 273.101 8.46567 273.071 8.51575C273.052 8.5271 273.052 8.54122 273.072 8.55663C273.091 8.57204 273.13 8.58817 273.183 8.60333C273.237 8.61849 273.303 8.63212 273.375 8.64279C273.447 8.65347 273.522 8.6608 273.593 8.66401C274.038 8.69674 274.457 8.70648 274.814 8.69237C275.172 8.67825 275.455 8.64073 275.64 8.58315L275.654 8.56089ZM282.058 9.64679C281.995 9.60196 281.86 9.55525 281.679 9.5152C281.497 9.47515 281.281 9.44445 281.069 9.42875C280.696 9.42664 280.357 9.43907 280.065 9.46557C279.748 9.48601 279.976 9.61579 280.405 9.69279C280.586 9.72369 280.78 9.7478 280.971 9.76319C281.162 9.77858 281.345 9.78483 281.505 9.78145C281.665 9.77806 281.798 9.76513 281.893 9.74369C281.988 9.72224 282.042 9.69288 282.052 9.65792L282.058 9.64679ZM95.946 -0.755217C94.9904 -0.915374 94.2549 -0.875082 93.4458 -0.939453C92.6368 -1.00382 92.4375 -1.0106 92.5459 -0.907591C92.6542 -0.804588 93.2089 -0.825477 93.5561 -0.782466C94.0253 -0.725395 94.4973 -0.692624 94.9194 -0.687811C95.3415 -0.682997 95.6969 -0.706337 95.946 -0.755217ZM295.071 26.3435C294.565 26.3076 294.069 26.2822 293.591 26.2677C293.528 26.2826 293.489 26.3021 293.475 26.325C293.462 26.348 293.474 26.3739 293.512 26.4013C293.512 26.4013 293.836 26.4832 294.025 26.5067C294.723 26.5871 294.758 26.4719 295.071 26.3435ZM366.609 41.2652C366.951 41.3733 367.111 41.4468 367.385 41.4987C367.511 41.5167 367.641 41.5298 367.766 41.537C367.891 41.5442 368.007 41.5453 368.106 41.5402C368.227 41.5091 368.255 41.4614 368.185 41.4067C368.185 41.4067 367.836 41.3097 367.703 41.3052C367.324 41.2823 366.957 41.2689 366.609 41.2652ZM79.6805 -1.6709C78.9544 -1.76083 78.2598 -1.84686 77.7571 -1.74191C78.9101 -1.62897 78.9101 -1.62896 79.6805 -1.6709ZM91.441 -0.644315C90.7078 -0.836646 90.2776 -0.8541 89.9256 -0.832001C89.8508 -0.826436 89.8013 -0.81403 89.7846 -0.796667C89.7679 -0.779306 89.7848 -0.757932 89.833 -0.735775C89.8811 -0.713619 89.9577 -0.69189 90.0513 -0.673871C90.1449 -0.655853 90.2503 -0.642528 90.3516 -0.635913C90.7339 -0.630376 91.0986 -0.633187 91.441 -0.644315ZM129.177 -0.562985C129.194 -0.590803 129.214 -0.624184 129.024 -0.647644C128.975 -0.659554 128.916 -0.669795 128.855 -0.677345C128.794 -0.684895 128.733 -0.689482 128.677 -0.69065C128.677 -0.69065 128.657 -0.657267 128.644 -0.635013L129.177 -0.562985ZM155.382 45.6208L154.961 45.6462L155.15 45.6696L155.65 45.6838L155.382 45.6208ZM303.868 9.21272C303.71 9.19317 303.553 9.17362 303.529 9.21257C303.496 9.21859 303.475 9.2273 303.469 9.23795C303.463 9.24859 303.471 9.26087 303.493 9.27376C303.493 9.27376 303.714 9.30114 303.809 9.31287L303.868 9.21272ZM279.285 9.5242C279.181 9.52197 279.087 9.52458 279.009 9.53187L278.989 9.56525L279.305 9.60435L279.285 9.5242ZM65.0448 17.4779C64.9228 17.4576 64.7936 17.4416 64.666 17.431L64.508 17.4114C64.508 17.4114 64.6777 17.4683 64.7724 17.48C64.8671 17.4917 64.9435 17.4773 65.0448 17.4779Z" fill="#DF6951"/>
</g>
</svg>
