<svg width="119" height="75" viewBox="0 0 130 120" fill="none" xmlns="http://www.w3.org/2000/svg">
<rect width="119" height="80" fill="#1E1E1E"/>
<g clip-path="url(#clip0_0_1)">
<rect width="1440" height="4774" transform="translate(-490 -1142)" fill="white"/>
<g filter="url(#filter0_dddddd_0_1)">
<rect x="-73" y="2" width="267" height="314" rx="36" fill="white"/>
</g>
<path d="M23.8057 72.9999C23.8057 82.9411 31.8645 90.9999 41.8057 90.9999L68.8057 90.9999C71.5671 90.9999 73.8057 88.7614 73.8057 85.9999L73.8057 51.9999C73.8057 46.4771 69.3285 41.9999 63.8057 41.9999L28.8057 41.9999C26.0442 41.9999 23.8057 44.2385 23.8057 46.9999L23.8057 72.9999Z" fill="#FFF1DA"/>
<path d="M72.3899 86.9413C71.0316 87.2455 69.7086 87.8091 68.503 88.5965C65.3623 90.5978 63.535 93.4545 64.4219 94.9767C65.3088 96.4988 68.5739 96.1095 71.7147 94.1082C72.9365 93.3486 74.0218 92.3778 74.904 91.2558C75.3134 90.7137 75.3869 90.0383 75.0917 89.5334L73.9395 87.556C73.6463 87.0495 73.0382 86.8086 72.3899 86.9413Z" fill="#D5D6DB"/>
<path d="M64.5023 59.9482C63.5174 60.169 62.5579 60.5778 61.6837 61.1488C59.4068 62.5996 58.0811 64.671 58.7237 65.7738C59.3663 66.8766 61.7347 66.5941 64.0113 65.1434C64.8972 64.5924 65.6842 63.8881 66.324 63.0745C66.6204 62.6815 66.6736 62.1922 66.4596 61.8261L65.6253 60.3943C65.413 60.0272 64.9724 59.8521 64.5023 59.9482Z" fill="#D5D6DB"/>
<path d="M51.6879 61.0787C51.4686 61.0542 51.2348 61.1126 51.032 61.2421L45.6839 64.6503C45.2365 64.9346 45.0575 65.4819 45.2844 65.8731C45.3363 65.9627 45.4073 66.0393 45.4936 66.0983L58.6752 75.1832L76.5087 63.8185L51.6879 61.0787Z" fill="#029BC5"/>
<path d="M108.065 59.794L59.5332 90.3461L30.8205 101.772L16.1773 104.682L14.5664 101.945L95.4615 51.9985C97.8723 50.5036 100.558 49.586 103.247 49.3389C104.424 49.237 105.587 49.2762 106.708 49.455C107.702 49.6057 108.645 49.8964 109.509 50.3185C110.473 50.7967 112.307 50.8519 112.902 51.8047C112.904 51.8032 114.306 56.1776 108.065 59.794V59.794Z" fill="#E1E6E9"/>
<path d="M60.1766 86.3036L39.1813 119.774C38.9191 120.244 39.0747 120.77 39.5286 120.949C39.8072 121.059 40.1481 121.016 40.4345 120.834L45.7785 117.444C46.8064 116.791 47.7165 115.963 48.4526 115.009L89.169 67.1404L60.1766 86.3036Z" fill="#029BC5"/>
<path d="M7.19698 85.1861C6.84676 85.0664 6.42998 85.1285 6.07815 85.3525L1.66065 88.1659C1.05874 88.549 0.818888 89.2854 1.12475 89.8111C1.18303 89.911 1.25873 89.999 1.34946 90.0714L13.7262 99.9838L26.7392 91.8557L7.19698 85.1861Z" fill="#029BC5"/>
<path d="M17.8748 101.771L11.2133 111.1C11.1156 111.234 11.1386 111.403 11.2646 111.476C11.3554 111.529 11.4794 111.519 11.5802 111.452L15.7084 108.836C15.7405 108.815 15.7695 108.79 15.7936 108.761L25.5271 96.9261L17.8748 101.771Z" fill="#029BC5"/>
<path d="M105.912 49.8572C104.757 49.6718 103.559 49.6322 102.347 49.7388C101.166 51.3899 100.411 53.2446 100.158 55.118C100.139 55.4943 100.442 55.7652 100.835 55.723C100.958 55.7098 101.079 55.6669 101.188 55.5981L108.796 50.7538C107.907 50.3152 106.935 50.0134 105.912 49.8572Z" fill="#029BC5"/>
<path d="M89.332 58.7654L94.299 55.6284L98.9257 63.4974L93.9586 66.6344L89.332 58.7654Z" fill="#D5D6DB"/>
<path d="M86.2071 61.8776C85.6086 62.2567 85.3693 62.9855 85.6732 63.5052L86.1655 64.3472C86.4894 64.8537 87.2286 64.9427 87.8169 64.546C88.3767 64.1682 88.6022 63.4816 88.3324 62.9745L87.8401 62.1325C87.5365 61.6133 86.8056 61.499 86.2071 61.8776V61.8776Z" fill="#3A556A"/>
<path d="M81.7433 64.65C81.1447 65.0292 80.9055 65.758 81.2093 66.2777L81.7016 67.1197C82.0255 67.6261 82.7648 67.7152 83.353 67.3185C83.9129 66.9407 84.1383 66.254 83.8685 65.747L83.3762 64.905C83.0723 64.3859 82.3415 64.2716 81.7433 64.65V64.65Z" fill="#3A556A"/>
<path d="M77.2771 67.4234C76.6793 67.803 76.4409 68.531 76.7445 69.0502L77.2368 69.8922C77.5606 70.3986 78.2999 70.4877 78.8882 70.091C79.448 69.7132 79.6735 69.0265 79.4037 68.5195L78.9114 67.6776C78.6075 67.1579 77.8759 67.0441 77.2771 67.4234V67.4234Z" fill="#3A556A"/>
<path d="M72.8133 70.1957C72.2154 70.5754 71.977 71.3033 72.2806 71.8226L72.7729 72.6646C73.0968 73.171 73.8361 73.2601 74.4243 72.8634C74.9842 72.4856 75.2096 71.7989 74.9398 71.2919L74.4475 70.4499C74.1434 69.9304 73.4118 69.8166 72.8133 70.1957V70.1957Z" fill="#3A556A"/>
<path d="M68.3491 72.9684C67.7508 73.3482 67.5123 74.0765 67.8161 74.5959L68.3087 75.4383C68.6124 75.9576 69.3436 76.0713 69.942 75.6923C70.5404 75.3133 70.7793 74.5851 70.4756 74.0658L69.983 73.2235C69.6801 72.7038 68.9491 72.5893 68.3503 72.9676C68.3498 72.9679 68.3496 72.9681 68.3491 72.9684Z" fill="#3A556A"/>
<path d="M63.8842 75.7409C63.286 76.1207 63.0475 76.8489 63.3513 77.3684L63.8439 78.2107C64.1475 78.73 64.8788 78.8437 65.4772 78.4647C66.0755 78.0858 66.3144 77.3576 66.0108 76.8383L65.5182 75.996C65.2152 75.4762 64.4843 75.3617 63.8855 75.7401C63.885 75.7404 63.8845 75.7407 63.8842 75.7409Z" fill="#3A556A"/>
<path d="M59.4194 78.5134C58.8211 78.8932 58.5826 79.6214 58.8864 80.1409L59.379 80.9832C59.6834 81.502 60.415 81.6146 61.0128 81.2351C61.6095 80.8563 61.8479 80.1296 61.5456 79.611L61.053 78.7687C60.7495 78.249 60.0182 78.1347 59.4194 78.5134Z" fill="#3A556A"/>
<path d="M54.9555 81.2859C54.3573 81.6657 54.1188 82.3939 54.4225 82.9134L54.9151 83.7558C55.2196 84.2746 55.9512 84.3871 56.5489 84.0076C57.1456 83.6288 57.384 82.9021 57.0817 82.3835L56.5891 81.5411C56.2856 81.0215 55.5544 80.9072 54.9555 81.2859Z" fill="#3A556A"/>
<path d="M50.4907 84.0583C49.8924 84.4381 49.6539 85.1664 49.9577 85.6858L50.4503 86.5281C50.7547 87.0469 51.4863 87.1595 52.084 86.78C52.6808 86.4012 52.9192 85.6745 52.6169 85.1559L52.1243 84.3136C51.8205 83.7941 51.0893 83.6798 50.4907 84.0583Z" fill="#3A556A"/>
<path d="M46.0248 86.8316C45.4265 87.2106 45.1876 87.9387 45.4912 88.458L45.4919 88.4591L45.9845 89.3014C46.2889 89.8202 47.0205 89.9328 47.6182 89.5533C48.2149 89.1745 48.4533 88.4478 48.1511 87.9292L47.6585 87.0868C47.3549 86.5672 46.6237 86.4529 46.0248 86.8316Z" fill="#3A556A"/>
<path d="M41.562 89.6033C40.9636 89.9822 40.7247 90.7104 41.0284 91.2297L41.029 91.2308L41.5216 92.0731C41.826 92.5918 42.5576 92.7044 43.1554 92.3249C43.7521 91.9461 43.9905 91.2195 43.6882 90.7008L43.1956 89.8585C42.8918 89.339 42.1606 89.2247 41.562 89.6033Z" fill="#3A556A"/>
</g>
<defs>
<filter id="filter0_dddddd_0_1" x="-153" y="0.703704" width="427" height="495.296" filterUnits="userSpaceOnUse" color-interpolation-filters="sRGB">
<feFlood flood-opacity="0" result="BackgroundImageFix"/>
<feColorMatrix in="SourceAlpha" type="matrix" values="0 0 0 0 0 0 0 0 0 0 0 0 0 0 0 0 0 0 127 0" result="hardAlpha"/>
<feOffset dy="1.85185"/>
<feGaussianBlur stdDeviation="1.57407"/>
<feColorMatrix type="matrix" values="0 0 0 0 0 0 0 0 0 0 0 0 0 0 0 0 0 0 0.01 0"/>
<feBlend mode="normal" in2="BackgroundImageFix" result="effect1_dropShadow_0_1"/>
<feColorMatrix in="SourceAlpha" type="matrix" values="0 0 0 0 0 0 0 0 0 0 0 0 0 0 0 0 0 0 127 0" result="hardAlpha"/>
<feOffset dy="8.14815"/>
<feGaussianBlur stdDeviation="3.25926"/>
<feColorMatrix type="matrix" values="0 0 0 0 0 0 0 0 0 0 0 0 0 0 0 0 0 0 0.01 0"/>
<feBlend mode="normal" in2="effect1_dropShadow_0_1" result="effect2_dropShadow_0_1"/>
<feColorMatrix in="SourceAlpha" type="matrix" values="0 0 0 0 0 0 0 0 0 0 0 0 0 0 0 0 0 0 127 0" result="hardAlpha"/>
<feOffset dy="20"/>
<feGaussianBlur stdDeviation="6.5"/>
<feColorMatrix type="matrix" values="0 0 0 0 0 0 0 0 0 0 0 0 0 0 0 0 0 0 0.01 0"/>
<feBlend mode="normal" in2="effect2_dropShadow_0_1" result="effect3_dropShadow_0_1"/>
<feColorMatrix in="SourceAlpha" type="matrix" values="0 0 0 0 0 0 0 0 0 0 0 0 0 0 0 0 0 0 127 0" result="hardAlpha"/>
<feOffset dy="38.5185"/>
<feGaussianBlur stdDeviation="12.7407"/>
<feColorMatrix type="matrix" values="0 0 0 0 0 0 0 0 0 0 0 0 0 0 0 0 0 0 0.0121481 0"/>
<feBlend mode="normal" in2="effect3_dropShadow_0_1" result="effect4_dropShadow_0_1"/>
<feColorMatrix in="SourceAlpha" type="matrix" values="0 0 0 0 0 0 0 0 0 0 0 0 0 0 0 0 0 0 127 0" result="hardAlpha"/>
<feOffset dy="64.8148"/>
<feGaussianBlur stdDeviation="23.4259"/>
<feColorMatrix type="matrix" values="0 0 0 0 0 0 0 0 0 0 0 0 0 0 0 0 0 0 0.0151852 0"/>
<feBlend mode="normal" in2="effect4_dropShadow_0_1" result="effect5_dropShadow_0_1"/>
<feColorMatrix in="SourceAlpha" type="matrix" values="0 0 0 0 0 0 0 0 0 0 0 0 0 0 0 0 0 0 127 0" result="hardAlpha"/>
<feOffset dy="100"/>
<feGaussianBlur stdDeviation="40"/>
<feColorMatrix type="matrix" values="0 0 0 0 0 0 0 0 0 0 0 0 0 0 0 0 0 0 0.02 0"/>
<feBlend mode="normal" in2="effect5_dropShadow_0_1" result="effect6_dropShadow_0_1"/>
<feBlend mode="normal" in="SourceGraphic" in2="effect6_dropShadow_0_1" result="shape"/>
</filter>
<clipPath id="clip0_0_1">
<rect width="1440" height="4774" fill="white" transform="translate(-490 -1142)"/>
</clipPath>
</defs>
</svg>
