<svg width="14" height="14" viewBox="0 0 14 14" fill="none" xmlns="http://www.w3.org/2000/svg">
<path d="M12.3429 1.24251L6.0254 7.58335C5.95298 7.54139 5.87682 7.50624 5.7979 7.47835L1.62707 6.06668C1.50094 6.03507 1.38898 5.96222 1.30899 5.8597C1.22899 5.75719 1.18555 5.63088 1.18555 5.50085C1.18555 5.37081 1.22899 5.24451 1.30899 5.14199C1.38898 5.03947 1.50094 4.96662 1.62707 4.93501L11.9754 1.25418C12.043 1.23121 12.114 1.21939 12.1854 1.21918C12.2388 1.21832 12.292 1.2262 12.3429 1.24251Z" fill="#84829A"/>
<path d="M12.7461 2.02412L9.06528 12.3841C9.02469 12.5049 8.94569 12.609 8.84036 12.6806C8.73503 12.7522 8.60915 12.7874 8.48194 12.7808C8.35327 12.7867 8.22627 12.7498 8.12074 12.6759C8.01522 12.6021 7.93712 12.4954 7.89861 12.3725L6.51027 8.20162C6.48238 8.1227 6.44723 8.04654 6.40527 7.97412L12.7578 1.65662C12.7936 1.77717 12.7895 1.90608 12.7461 2.02412Z" fill="#84829A"/>
</svg>
