<svg width="47" height="48" viewBox="0 0 47 48" fill="none" xmlns="http://www.w3.org/2000/svg">
<rect width="47" height="48" rx="13" fill="#F15A2B"/>
<path d="M32.8184 31.9287C32.3682 31.9379 31.926 31.8091 31.5512 31.5596C31.2723 31.3773 30.9462 31.2803 30.613 31.2803C30.2797 31.2803 29.9537 31.3773 29.6747 31.5596C29.2961 31.8007 28.8566 31.9287 28.4077 31.9287C27.9589 31.9287 27.5194 31.8007 27.1408 31.5596C26.8618 31.3772 26.5357 31.28 26.2023 31.28C25.869 31.28 25.5429 31.3772 25.2639 31.5596C24.8853 31.8007 24.4458 31.9287 23.9969 31.9287C23.5481 31.9287 23.1086 31.8007 22.7299 31.5596C22.4512 31.3773 22.1253 31.2801 21.7922 31.2801C21.459 31.2801 21.1331 31.3773 20.8544 31.5596C20.5111 31.7878 20.1105 31.9145 19.6985 31.9255L19.6758 31.2768C19.9801 31.2696 20.2757 31.1733 20.5258 30.9998C20.9044 30.7589 21.3438 30.6308 21.7925 30.6308C22.2412 30.6308 22.6806 30.7589 23.0591 30.9998C23.3381 31.1822 23.6641 31.2793 23.9974 31.2793C24.3307 31.2793 24.6567 31.1822 24.9357 30.9998C25.3143 30.7586 25.754 30.6305 26.203 30.6305C26.6519 30.6305 27.0916 30.7586 27.4703 30.9998C27.7492 31.1822 28.0753 31.2793 28.4085 31.2793C28.7418 31.2793 29.0679 31.1822 29.3468 30.9998C29.7255 30.7589 30.165 30.6309 30.6138 30.6309C31.0626 30.6309 31.5021 30.7589 31.8808 30.9998C32.1604 31.1826 32.4872 31.28 32.8213 31.28C33.1554 31.28 33.4822 31.1826 33.7618 30.9998C34.1362 30.7511 34.5776 30.6225 35.027 30.6314V31.2801C34.6924 31.2709 34.3636 31.3687 34.0884 31.5593C33.7127 31.8092 33.2695 31.9381 32.8184 31.9287Z" fill="white"/>
<path d="M15.1781 31.9287C14.728 31.938 14.2859 31.8092 13.9113 31.5596C13.6361 31.3689 13.3073 31.2709 12.9727 31.2801V30.6314C13.4228 30.6221 13.8651 30.7509 14.2398 31.0005C14.5148 31.1913 14.8435 31.2892 15.1781 31.2801C15.5128 31.2893 15.8416 31.1912 16.1167 31.0002C16.4906 30.7507 16.9321 30.622 17.3815 30.6314C17.8201 30.6216 18.2513 30.7444 18.6188 30.9839L18.2916 31.5437C18.0231 31.3631 17.7049 31.2709 17.3815 31.2801C17.0482 31.2711 16.7207 31.3688 16.4468 31.559C16.0717 31.8093 15.6289 31.9383 15.1781 31.9287Z" fill="white"/>
<path d="M32.819 29.6581C32.3686 29.6673 31.9261 29.5386 31.5509 29.2891C31.2717 29.1066 30.9454 29.0094 30.6118 29.0094C30.2783 29.0094 29.952 29.1066 29.6728 29.2891C29.2942 29.53 28.8547 29.658 28.406 29.658C27.9572 29.658 27.5177 29.53 27.1391 29.2891C26.8603 29.1067 26.5344 29.0096 26.2012 29.0096C25.868 29.0096 25.5421 29.1067 25.2633 29.2891C24.8847 29.5301 24.4452 29.6582 23.9964 29.6582C23.5477 29.6582 23.1082 29.5301 22.7296 29.2891C22.4508 29.1067 22.1249 29.0096 21.7917 29.0096C21.4585 29.0096 21.1326 29.1067 20.8537 29.2891C20.4791 29.5387 20.037 29.6675 19.5869 29.6581C19.1369 29.6675 18.6947 29.5387 18.3201 29.2891C18.0452 29.0983 17.7166 29.0004 17.3822 29.0095C17.0478 29.0004 16.7193 29.0984 16.4445 29.2891C16.0705 29.5384 15.6291 29.6672 15.1797 29.6581C14.7295 29.6675 14.2873 29.5387 13.9125 29.2891C13.6371 29.0979 13.3078 29 12.9727 29.0095V28.3608C13.4227 28.3515 13.8648 28.4804 14.2395 28.7299C14.5146 28.9207 14.8434 29.0186 15.1781 29.0095C15.5124 29.0186 15.8409 28.9206 16.1157 28.7299C16.4897 28.4806 16.9311 28.3518 17.3805 28.3608C17.8309 28.3513 18.2734 28.4801 18.6483 28.7299C18.9233 28.9207 19.252 29.0187 19.5866 29.0095C19.9212 29.0187 20.2499 28.9207 20.5249 28.7299C20.9034 28.4888 21.3429 28.3608 21.7917 28.3608C22.2405 28.3608 22.68 28.4888 23.0585 28.7299C23.3374 28.9123 23.6634 29.0094 23.9966 29.0094C24.3298 29.0094 24.6558 28.9123 24.9347 28.7299C25.3133 28.4888 25.7527 28.3608 26.2015 28.3608C26.6503 28.3608 27.0898 28.4888 27.4683 28.7299C27.7472 28.9123 28.0732 29.0094 28.4064 29.0094C28.7397 29.0094 29.0657 28.9123 29.3446 28.7299C29.7235 28.4889 30.1633 28.3609 30.6123 28.3609C31.0614 28.3609 31.5012 28.4889 31.8801 28.7299C32.1595 28.9123 32.4859 29.0093 32.8195 29.0093C33.1531 29.0093 33.4795 28.9123 33.7589 28.7299C34.134 28.4805 34.5764 28.3517 35.0267 28.3608V29.0095C34.6914 29 34.3619 29.098 34.0862 29.2891C33.7113 29.5384 33.2692 29.6671 32.819 29.6581Z" fill="white"/>
<path d="M32.8179 27.3881C32.3678 27.3973 31.9256 27.2685 31.5508 27.0191C31.2757 26.8283 30.9469 26.7304 30.6122 26.7395C30.3666 26.731 30.1227 26.7834 29.9023 26.8919L29.6162 26.3081C29.9258 26.1564 30.2675 26.0815 30.6122 26.0899C31.0629 26.0807 31.5056 26.2098 31.8806 26.4599C32.1603 26.6427 32.4871 26.7401 32.8212 26.7401C33.1553 26.7401 33.4821 26.6427 33.7617 26.4599C34.1359 26.211 34.5772 26.0822 35.0266 26.0908V26.7395C34.692 26.7303 34.3632 26.8281 34.088 27.0187C33.7123 27.2686 33.2691 27.3975 32.8179 27.3881Z" fill="white"/>
<path d="M28.404 27.3881C27.9546 27.3975 27.5131 27.2688 27.1391 27.0194C26.8602 26.8369 26.5341 26.7397 26.2007 26.7397C25.8674 26.7397 25.5412 26.8369 25.2623 27.0194C24.8837 27.2604 24.4441 27.3884 23.9953 27.3884C23.5465 27.3884 23.1069 27.2604 22.7283 27.0194C22.4494 26.837 22.1233 26.7399 21.7901 26.7399C21.4568 26.7399 21.1307 26.837 20.8518 27.0194C20.4772 27.2685 20.0354 27.3972 19.5856 27.3881C19.1356 27.3974 18.6935 27.2686 18.3188 27.019C18.0437 26.8283 17.7149 26.7304 17.3802 26.7395C17.0469 26.7305 16.7194 26.8282 16.4455 27.0184C16.0708 27.2684 15.6284 27.3975 15.1781 27.3881C14.728 27.3974 14.2859 27.2686 13.9113 27.019C13.6361 26.8283 13.3073 26.7304 12.9727 26.7395V26.0908C13.4228 26.0815 13.8651 26.2103 14.2398 26.4599C14.5148 26.6507 14.8435 26.7486 15.1781 26.7395C15.5128 26.7487 15.8417 26.6506 16.1167 26.4596C16.4906 26.2101 16.9321 26.0814 17.3815 26.0908C17.8316 26.0815 18.2737 26.2103 18.6483 26.4599C18.9233 26.6507 19.252 26.7486 19.5866 26.7395C19.9213 26.7486 20.2501 26.6506 20.5252 26.4599C20.9038 26.2189 21.3433 26.0908 21.7922 26.0908C22.241 26.0908 22.6805 26.2189 23.0591 26.4599C23.3381 26.6423 23.6641 26.7394 23.9974 26.7394C24.3307 26.7394 24.6567 26.6423 24.9357 26.4599C25.3144 26.2187 25.754 26.0905 26.203 26.0905C26.652 26.0905 27.0916 26.2187 27.4703 26.4599C27.756 26.6521 28.0948 26.7498 28.439 26.7391C28.4641 26.7395 28.4891 26.7382 28.514 26.7352L28.6002 27.3781C28.5351 27.3857 28.4696 27.389 28.404 27.3881Z" fill="white"/>
<path d="M32.819 25.1175C32.3686 25.1267 31.9261 24.9979 31.5509 24.7484C31.2717 24.566 30.9454 24.4688 30.6118 24.4688C30.2783 24.4688 29.952 24.566 29.6728 24.7484C29.2942 24.9894 28.8547 25.1174 28.406 25.1174C27.9572 25.1174 27.5177 24.9894 27.1391 24.7484C26.8603 24.5661 26.5344 24.469 26.2012 24.469C25.868 24.469 25.5421 24.5661 25.2633 24.7484C24.8847 24.9895 24.4452 25.1175 23.9964 25.1175C23.5477 25.1175 23.1082 24.9895 22.7296 24.7484C22.4508 24.5661 22.1249 24.469 21.7917 24.469C21.4585 24.469 21.1326 24.5661 20.8537 24.7484C20.4791 24.998 20.037 25.1268 19.5869 25.1175C19.1369 25.1268 18.6947 24.998 18.3201 24.7484C18.0452 24.5577 17.7166 24.4597 17.3822 24.4688C17.0478 24.4598 16.7193 24.5577 16.4445 24.7484C16.0705 24.9977 15.6291 25.1265 15.1797 25.1175C14.7295 25.1268 14.2873 24.998 13.9125 24.7484C13.6371 24.5573 13.3078 24.4593 12.9727 24.4688V23.8202C13.4227 23.8109 13.8648 23.9397 14.2395 24.1893C14.5146 24.38 14.8434 24.478 15.1781 24.4688C15.5124 24.4779 15.8409 24.38 16.1157 24.1893C16.4897 23.94 16.9311 23.8111 17.3805 23.8202C17.8309 23.8106 18.2734 23.9395 18.6483 24.1893C18.9233 24.3801 19.252 24.478 19.5866 24.4688C19.9212 24.478 20.2499 24.3801 20.5249 24.1893C20.9034 23.9482 21.3429 23.8201 21.7917 23.8201C22.2405 23.8201 22.68 23.9482 23.0585 24.1893C23.3374 24.3717 23.6634 24.4688 23.9966 24.4688C24.3298 24.4688 24.6558 24.3717 24.9347 24.1893C25.3133 23.9482 25.7527 23.8201 26.2015 23.8201C26.6503 23.8201 27.0898 23.9482 27.4683 24.1893C27.7472 24.3717 28.0732 24.4688 28.4064 24.4688C28.7397 24.4688 29.0657 24.3717 29.3446 24.1893C29.7235 23.9483 30.1633 23.8203 30.6123 23.8203C31.0614 23.8203 31.5012 23.9483 31.8801 24.1893C32.1595 24.3716 32.4859 24.4687 32.8195 24.4687C33.1531 24.4687 33.4795 24.3716 33.7589 24.1893C34.134 23.9399 34.5764 23.8111 35.0267 23.8202V24.4688C34.6914 24.4594 34.3619 24.5573 34.0862 24.7484C33.7113 24.9977 33.2692 25.1265 32.819 25.1175Z" fill="white"/>
<path d="M28.1977 24.8425L27.5857 24.6278C27.7433 24.1749 27.8077 23.6948 27.775 23.2165C27.7423 22.7381 27.6131 22.2713 27.3953 21.8441L25.1675 17.4816C25.1455 17.4385 25.1335 17.3911 25.1322 17.3427C25.1309 17.2943 25.1404 17.2463 25.1601 17.2021C25.1798 17.1579 25.2091 17.1187 25.2459 17.0873C25.2827 17.0559 25.3261 17.0332 25.3728 17.0207L29.8125 15.8369C29.9572 15.7991 30.0811 15.7057 30.1572 15.577C30.2333 15.4483 30.2556 15.2947 30.2191 15.1497C30.1826 15.0046 30.0903 14.8799 29.9622 14.8026C29.8342 14.7253 29.6809 14.7017 29.5355 14.7368L24.1621 16.0212C24.0473 16.0483 23.9402 16.1015 23.8492 16.1767C23.7582 16.2519 23.6857 16.347 23.6374 16.4547C23.5891 16.5624 23.5662 16.6797 23.5705 16.7977C23.5748 16.9157 23.6063 17.031 23.6623 17.1349L25.258 20.0992C25.2985 20.1746 25.3076 20.2628 25.2833 20.3448C25.259 20.4268 25.2033 20.4959 25.1283 20.5371L23.0688 21.6722L22.7559 21.104L24.5338 20.1239L23.0919 17.4424C22.9887 17.2509 22.931 17.0383 22.9231 16.821C22.9152 16.6037 22.9574 16.3875 23.0465 16.1891C23.1355 15.9907 23.269 15.8155 23.4366 15.6769C23.6041 15.5384 23.8014 15.4402 24.0129 15.39L29.3838 14.106C29.6964 14.027 30.0277 14.0755 30.3046 14.2407C30.5816 14.4059 30.7816 14.6744 30.8606 14.9871C30.9396 15.2997 30.8911 15.631 30.7259 15.9079C30.5607 16.1849 30.2922 16.3849 29.9795 16.4639L25.9274 17.5439L27.9733 21.5486C28.2309 22.0541 28.3836 22.6065 28.4221 23.1726C28.4607 23.7387 28.3844 24.3067 28.1977 24.8425Z" fill="white"/>
<path d="M21.6219 21.7339L17.6807 23.9056L17.9936 24.4735L21.9348 22.3017L21.6219 21.7339Z" fill="white"/>
<path d="M31.1346 22.6851C30.6535 22.6851 30.1832 22.5424 29.7832 22.2751C29.3832 22.0078 29.0714 21.6279 28.8873 21.1835C28.7032 20.739 28.655 20.2499 28.7489 19.7781C28.8427 19.3062 29.0744 18.8728 29.4146 18.5326C29.7548 18.1925 30.1882 17.9608 30.66 17.8669C31.1319 17.7731 31.621 17.8212 32.0654 18.0053C32.5099 18.1895 32.8898 18.5012 33.1571 18.9012C33.4243 19.3012 33.567 19.7715 33.567 20.2526C33.5663 20.8975 33.3098 21.5158 32.8538 21.9719C32.3978 22.4279 31.7795 22.6844 31.1346 22.6851ZM31.1346 18.4688C30.7818 18.4688 30.4369 18.5735 30.1436 18.7695C29.8502 18.9655 29.6216 19.2441 29.4866 19.57C29.3516 19.8959 29.3162 20.2546 29.3851 20.6006C29.4539 20.9466 29.6238 21.2645 29.8733 21.5139C30.1227 21.7634 30.4406 21.9333 30.7866 22.0021C31.1326 22.071 31.4913 22.0356 31.8172 21.9006C32.1431 21.7656 32.4217 21.537 32.6177 21.2436C32.8137 20.9503 32.9184 20.6054 32.9184 20.2526C32.9178 19.7797 32.7296 19.3264 32.3952 18.992C32.0608 18.6576 31.6075 18.4694 31.1346 18.4688Z" fill="white"/>
</svg>
